<?xml version="1.0" encoding="UTF-8" standalone="no"?>
<svg
   version="1.1"
   viewBox="0 0 1521 558"
   width="380.25"
   height="139.5"
   id="svg11"
   sodipodi:docname="sign.svg"
   inkscape:version="1.3.2 (091e20e, 2023-11-25)"
   xmlns:inkscape="http://www.inkscape.org/namespaces/inkscape"
   xmlns:sodipodi="http://sodipodi.sourceforge.net/DTD/sodipodi-0.dtd"
   xmlns="http://www.w3.org/2000/svg"
   xmlns:svg="http://www.w3.org/2000/svg">
  <defs
     id="defs11" />
  <sodipodi:namedview
     id="namedview11"
     pagecolor="#ffffff"
     bordercolor="#000000"
     borderopacity="0.25"
     inkscape:showpageshadow="2"
     inkscape:pageopacity="0.0"
     inkscape:pagecheckerboard="0"
     inkscape:deskcolor="#d1d1d1"
     inkscape:zoom="4.5947934"
     inkscape:cx="178.35405"
     inkscape:cy="80.308289"
     inkscape:window-width="1440"
     inkscape:window-height="847"
     inkscape:window-x="0"
     inkscape:window-y="25"
     inkscape:window-maximized="1"
     inkscape:current-layer="svg11" />
  <path
     id="path2"
     d="M 526 35 L 494 38 L 465 43 L 439 49 L 403 59 L 368 71 L 331 86 L 308 97 L 279 112 L 256 125 L 235 138 L 220 148 L 203 160 L 185 173 L 173 183 L 162 192 L 147 207 L 135 221 L 128 233 L 123 245 L 120 257 L 120 269 L 122 277 L 127 287 L 136 297 L 147 305 L 163 313 L 187 320 L 214 326 L 245 330 L 271 332 L 270 334 L 233 348 L 192 365 L 160 380 L 137 391 L 115 403 L 97 413 L 77 425 L 57 438 L 41 450 L 27 461 L 19 469 L 10 479 L 4 488 L 0 499 L 0 506 L 2 512 L 9 520 L 21 526 L 38 529 L 63 529 L 91 526 L 115 522 L 147 515 L 174 508 L 214 496 L 230 492 L 229 494 L 224 497 L 209 509 L 198 518 L 188 527 L 171 543 L 164 551 L 163 555 L 167 558 L 174 558 L 181 553 L 183 549 L 185 549 L 194 540 L 204 531 L 212 524 L 225 513 L 235 505 L 247 496 L 268 480 L 280 473 L 326 455 L 365 439 L 395 426 L 421 414 L 454 399 L 491 381 L 507 373 L 508 381 L 510 386 L 515 391 L 523 394 L 530 393 L 545 388 L 555 382 L 559 380 L 561 387 L 567 390 L 576 391 L 590 388 L 581 396 L 577 402 L 577 410 L 581 415 L 591 419 L 602 419 L 610 418 L 626 414 L 638 408 L 643 402 L 644 392 L 641 380 L 639 370 L 641 370 L 657 361 L 651 372 L 650 381 L 654 386 L 660 389 L 673 389 L 677 388 L 689 382 L 703 371 L 704 379 L 708 384 L 714 387 L 727 386 L 737 382 L 748 375 L 755 368 L 761 360 L 761 355 L 757 353 L 753 356 L 738 370 L 726 376 L 719 376 L 718 374 L 719 363 L 721 351 L 717 348 L 710 348 L 702 353 L 688 366 L 675 375 L 669 376 L 671 370 L 680 356 L 688 348 L 702 339 L 710 338 L 714 341 L 719 343 L 723 339 L 724 334 L 720 328 L 714 325 L 706 325 L 694 329 L 679 338 L 668 347 L 656 353 L 635 360 L 631 358 L 625 342 L 625 332 L 629 327 L 634 327 L 642 333 L 649 333 L 650 332 L 651 327 L 647 322 L 640 318 L 625 318 L 618 321 L 613 326 L 610 333 L 610 343 L 612 350 L 614 359 L 605 366 L 595 372 L 583 376 L 575 377 L 575 372 L 578 364 L 586 346 L 587 339 L 585 337 L 579 337 L 577 338 L 571 346 L 564 360 L 558 369 L 545 376 L 532 381 L 524 380 L 523 374 L 525 361 L 533 337 L 546 303 L 558 273 L 570 244 L 580 219 L 582 210 L 578 207 L 572 207 L 571 208 L 567 214 L 550 255 L 527 308 L 515 338 L 508 363 L 501 362 L 492 362 L 481 363 L 467 366 L 443 373 L 416 383 L 397 391 L 376 401 L 360 409 L 337 421 L 311 436 L 294 447 L 272 461 L 258 467 L 215 482 L 183 492 L 134 506 L 96 514 L 67 518 L 42 518 L 32 516 L 26 513 L 22 508 L 21 500 L 24 491 L 31 481 L 38 474 L 46 467 L 60 455 L 78 442 L 97 430 L 118 418 L 141 405 L 161 395 L 186 383 L 216 370 L 253 355 L 300 338 L 319 333 L 344 330 L 371 326 L 395 321 L 406 317 L 411 313 L 412 309 L 410 306 L 405 303 L 389 303 L 379 304 L 361 307 L 335 314 L 314 319 L 299 321 L 282 321 L 265 320 L 245 318 L 217 314 L 195 309 L 176 303 L 162 296 L 154 290 L 149 285 L 144 277 L 141 266 L 141 258 L 143 247 L 151 231 L 162 216 L 177 201 L 188 192 L 203 179 L 222 165 L 255 143 L 296 119 L 330 102 L 366 86 L 403 72 L 432 63 L 464 55 L 490 50 L 521 46 L 559 46 L 579 49 L 596 54 L 617 62 L 631 70 L 640 78 L 646 82 L 654 82 L 656 80 L 657 75 L 654 70 L 643 60 L 629 53 L 605 44 L 582 38 L 561 35 L 526 35 z M 462 379 L 465 380 L 457 385 L 436 395 L 414 404 L 371 422 L 353 429 L 350 428 L 369 418 L 401 402 L 435 388 L 462 379 z M 620 381 L 625 382 L 627 389 L 627 398 L 623 402 L 612 406 L 597 407 L 590 405 L 593 400 L 604 391 L 617 383 L 620 381 z " />
  <path
     d="m 1236,0 h 82 l 38,2 39,4 36,6 25,6 24,8 21,10 13,10 6,9 1,2 v 6 l -4,5 h -6 l -4,-5 -6,-10 -12,-9 -21,-10 -19,-7 -26,-7 -20,-4 -33,-4 -40,-2 h -60 l -50,2 -39,3 -44,5 -42,6 -29,5 -38,8 -42,11 -32,10 -31,12 -26,12 -20,11 -18,12 -10,8 -10,9 -8,8 -13,17 -8,16 -3,12 -1,7 1,17 4,15 10,21 8,12 11,14 12,13 28,28 8,7 12,11 8,7 10,9 13,12 14,12 15,14 10,9 12,11 7,7 8,7 8,8 8,7 21,21 11,15 4,8 2,7 -1,8 -4,6 -9,6 -9,3 -11,2 h -41 l -25,-3 -27,-5 -24,-7 -16,-6 -11,-7 -7,-8 -2,-5 1,-10 5,-8 9,-9 14,-9 11,-5 14,-4 15,-2 15,1 16,4 10,5 3,3 -2,5 -3,1 -18,-7 -10,-2 h -11 l -15,3 -12,5 -10,7 -9,8 -4,6 v 8 l 6,7 11,6 25,7 33,6 21,3 11,1 h 25 l 12,-3 5,-5 v -9 l -7,-12 -14,-15 -9,-10 -17,-17 -8,-7 -9,-9 -8,-7 -15,-14 -8,-7 -10,-9 -8,-7 -10,-9 -12,-11 -8,-7 -10,-9 -15,-14 -7,-7 -8,-7 -17,-17 -9,-11 -10,-12 -11,-17 -8,-17 -5,-18 -1,-8 v -12 l 3,-16 5,-12 6,-11 9,-12 11,-12 9,-9 14,-11 10,-7 13,-8 18,-10 27,-13 28,-11 37,-12 38,-10 36,-8 27,-5 32,-5 39,-5 46,-4 z"
     fill="#040404"
     id="path3" />
  <path
     id="path4"
     d="M 1154 207 L 1150 212 L 1140 236 L 1117 290 L 1104 320 L 1096 341 L 1090 363 L 1089 375 L 1091 384 L 1095 390 L 1101 393 L 1112 393 L 1122 390 L 1136 383 L 1138 379 L 1140 379 L 1142 383 L 1146 389 L 1153 392 L 1165 391 L 1170 389 L 1184 380 L 1192 373 L 1199 365 L 1213 351 L 1209 367 L 1209 374 L 1210 378 L 1217 384 L 1227 385 L 1235 383 L 1243 379 L 1246 387 L 1252 390 L 1267 390 L 1274 388 L 1282 384 L 1293 377 L 1303 367 L 1311 357 L 1312 351 L 1307 352 L 1294 363 L 1282 371 L 1268 376 L 1259 377 L 1260 372 L 1270 348 L 1273 339 L 1270 337 L 1264 337 L 1260 340 L 1252 353 L 1246 363 L 1232 372 L 1225 373 L 1225 370 L 1229 354 L 1236 336 L 1246 312 L 1263 272 L 1285 224 L 1286 215 L 1285 214 L 1276 214 L 1271 219 L 1257 243 L 1242 271 L 1229 294 L 1217 316 L 1210 326 L 1185 326 L 1180 327 L 1168 332 L 1159 339 L 1154 344 L 1147 354 L 1141 368 L 1125 377 L 1114 381 L 1106 380 L 1105 369 L 1109 354 L 1123 316 L 1138 278 L 1154 239 L 1162 220 L 1164 211 L 1160 207 L 1154 207 z M 1189 334 L 1196 334 L 1201 337 L 1200 343 L 1192 353 L 1183 363 L 1176 371 L 1168 378 L 1159 383 L 1156 380 L 1156 369 L 1160 360 L 1166 349 L 1171 344 L 1179 338 L 1189 334 z " />
  <path
     id="path5"
     d="M 1065 333 L 1059 335 L 1046 335 L 1039 338 L 1031 345 L 1023 356 L 1019 366 L 1019 376 L 1022 382 L 1030 387 L 1039 389 L 1051 389 L 1056 388 L 1067 383 L 1076 375 L 1084 365 L 1088 357 L 1089 347 L 1087 341 L 1083 336 L 1075 333 L 1065 333 z M 1058 343 L 1070 343 L 1074 347 L 1072 357 L 1065 367 L 1057 374 L 1047 379 L 1038 380 L 1035 377 L 1034 370 L 1039 358 L 1047 349 L 1055 344 L 1058 343 z " />
  <path
     d="m 1284,298 7,1 2,4 -4,9 -5,8 -4,3 h -9 l -1,-2 6,-13 6,-9 z"
     fill="#040404"
     id="path10" />
  <path
     d="m 599,298 h 6 l 2,2 -1,8 -4,8 -7,7 h -9 l 1,-7 7,-13 z"
     fill="#040404"
     id="path11" />
</svg>
