<?xml version="1.0" encoding="UTF-8" standalone="no"?>
<svg
   version="1.1"
   viewBox="0 0 727 757"
   width="181.75"
   height="189.25"
   id="svg20"
   sodipodi:docname="heart.svg"
   inkscape:version="1.3.2 (091e20e, 2023-11-25)"
   xmlns:inkscape="http://www.inkscape.org/namespaces/inkscape"
   xmlns:sodipodi="http://sodipodi.sourceforge.net/DTD/sodipodi-0.dtd"
   xmlns="http://www.w3.org/2000/svg"
   xmlns:svg="http://www.w3.org/2000/svg">
  <defs
     id="defs20" />
  <sodipodi:namedview
     id="namedview20"
     pagecolor="#ffffff"
     bordercolor="#000000"
     borderopacity="0.25"
     inkscape:showpageshadow="2"
     inkscape:pageopacity="0.0"
     inkscape:pagecheckerboard="0"
     inkscape:deskcolor="#d1d1d1"
     inkscape:zoom="2.1443463"
     inkscape:cx="88.371919"
     inkscape:cy="129.17689"
     inkscape:window-width="1440"
     inkscape:window-height="847"
     inkscape:window-x="0"
     inkscape:window-y="25"
     inkscape:window-maximized="1"
     inkscape:current-layer="svg20" />
  <path
     id="path2"
     d="M 183 114 L 167 117 L 155 122 L 142 130 L 132 139 L 122 152 L 115 165 L 109 183 L 111 187 L 112 191 L 99 193 L 84 197 L 70 203 L 57 212 L 50 219 L 42 229 L 34 245 L 31 257 L 31 280 L 32 283 L 34 288 L 31 291 L 17 306 L 7 322 L 2 333 L 0 345 L 0 367 L 1 371 L 5 382 L 15 400 L 23 409 L 24 414 L 15 437 L 12 452 L 12 471 L 14 481 L 19 494 L 28 508 L 35 515 L 44 522 L 58 529 L 74 533 L 91 536 L 91 540 L 89 550 L 87 565 L 87 582 L 91 600 L 97 613 L 106 626 L 117 637 L 134 650 L 150 659 L 157 665 L 169 688 L 179 698 L 192 706 L 207 712 L 228 713 L 231 715 L 239 730 L 246 739 L 256 748 L 264 752 L 279 756 L 295 757 L 300 756 L 312 752 L 326 743 L 333 736 L 341 726 L 347 715 L 350 705 L 351 596 L 351 251 L 350 205 L 349 196 L 345 183 L 338 168 L 330 157 L 320 148 L 309 142 L 294 138 L 274 138 L 268 139 L 254 143 L 247 144 L 242 137 L 229 125 L 214 117 L 200 114 L 183 114 z M 176 133 L 194 133 L 206 136 L 216 142 L 224 149 L 229 156 L 230 160 L 222 172 L 218 183 L 219 188 L 220 190 L 226 190 L 232 186 L 240 171 L 244 166 L 256 160 L 273 157 L 287 157 L 296 159 L 305 164 L 315 173 L 321 181 L 326 193 L 329 203 L 330 213 L 330 267 L 331 270 L 330 318 L 330 457 L 331 481 L 330 494 L 323 502 L 313 510 L 295 518 L 283 522 L 278 523 L 257 523 L 244 519 L 228 511 L 220 504 L 214 497 L 207 483 L 203 471 L 202 465 L 202 436 L 208 418 L 215 407 L 224 399 L 232 395 L 245 391 L 250 390 L 268 390 L 278 393 L 283 394 L 294 387 L 295 386 L 295 380 L 290 376 L 281 373 L 275 372 L 254 372 L 238 376 L 222 384 L 213 391 L 203 400 L 196 408 L 189 420 L 184 437 L 182 450 L 182 460 L 183 469 L 187 471 L 187 473 L 173 475 L 152 481 L 136 488 L 123 497 L 107 513 L 84 513 L 70 510 L 56 503 L 46 494 L 39 483 L 33 467 L 32 462 L 32 444 L 37 428 L 42 419 L 49 420 L 55 421 L 64 421 L 75 420 L 81 418 L 86 419 L 97 431 L 107 438 L 122 445 L 137 445 L 150 443 L 160 437 L 166 431 L 166 426 L 164 423 L 155 424 L 141 427 L 128 426 L 119 422 L 110 415 L 103 405 L 99 395 L 98 391 L 98 376 L 101 364 L 107 354 L 113 350 L 123 345 L 128 339 L 128 333 L 125 332 L 117 332 L 108 336 L 100 342 L 93 349 L 84 363 L 80 374 L 79 380 L 79 389 L 81 394 L 82 399 L 72 401 L 59 401 L 47 398 L 38 392 L 30 383 L 24 371 L 20 358 L 19 352 L 19 341 L 22 329 L 29 315 L 37 305 L 41 301 L 52 310 L 65 316 L 79 320 L 85 321 L 107 321 L 124 317 L 134 311 L 144 301 L 154 287 L 164 270 L 173 255 L 181 247 L 189 243 L 195 242 L 203 242 L 218 245 L 228 250 L 237 260 L 242 270 L 244 282 L 245 299 L 247 303 L 254 303 L 261 299 L 264 292 L 264 276 L 262 266 L 257 254 L 250 243 L 242 235 L 226 227 L 212 224 L 199 224 L 187 227 L 177 232 L 167 241 L 159 250 L 150 264 L 138 287 L 131 295 L 124 300 L 116 302 L 107 303 L 92 303 L 77 300 L 63 293 L 56 285 L 52 277 L 50 266 L 50 256 L 52 245 L 57 233 L 66 223 L 78 217 L 91 214 L 104 213 L 109 216 L 116 235 L 118 240 L 127 238 L 133 234 L 135 234 L 134 225 L 129 204 L 128 196 L 128 183 L 130 171 L 135 159 L 141 150 L 146 145 L 155 139 L 165 135 L 176 133 z M 178 493 L 185 493 L 189 497 L 197 510 L 204 519 L 212 527 L 220 532 L 220 534 L 218 534 L 216 539 L 209 549 L 202 561 L 199 572 L 198 578 L 202 580 L 201 583 L 189 589 L 175 601 L 167 610 L 159 624 L 159 635 L 158 637 L 153 635 L 139 625 L 127 614 L 119 605 L 111 589 L 108 576 L 108 555 L 111 539 L 116 527 L 124 515 L 126 515 L 126 513 L 128 513 L 128 511 L 138 504 L 149 499 L 178 493 z M 328 514 L 330 516 L 331 554 L 331 578 L 330 601 L 330 706 L 327 716 L 321 724 L 312 730 L 303 733 L 286 733 L 276 730 L 266 724 L 258 715 L 253 704 L 251 694 L 251 680 L 254 667 L 254 660 L 249 657 L 244 658 L 239 664 L 232 678 L 234 682 L 235 688 L 222 688 L 208 685 L 196 679 L 188 672 L 179 656 L 175 645 L 174 641 L 174 628 L 179 616 L 184 608 L 189 602 L 193 600 L 200 601 L 213 620 L 220 627 L 233 635 L 248 640 L 269 641 L 276 638 L 282 633 L 283 631 L 283 624 L 281 623 L 258 621 L 245 618 L 235 612 L 226 603 L 221 592 L 218 579 L 218 568 L 221 556 L 226 544 L 234 534 L 242 535 L 254 537 L 270 537 L 291 532 L 310 524 L 328 514 z "
     style="fill:#b3b3b3" />
  <path
     d="m 499,152 h 3 l 3,9 1,6 v 23 l -4,15 -7,16 -1,9 3,18 5,17 2,24 1,23 1,45 5,-5 3,-9 h 2 l 3,-14 v -14 l -6,-14 -2,-7 v -24 l 2,-10 10,-8 4,-1 5,10 3,13 1,8 v 12 l -4,13 -1,7 3,-3 5,-11 1,-3 1,-27 6,-12 7,-7 11,-9 11,-10 h 3 l 1,7 -2,15 -4,8 -11,14 -13,12 -13,24 -6,12 -8,13 -7,14 6,-2 20,-11 10,-8 10,-4 h 22 l -2,5 -8,10 -8,8 -16,8 -6,2 -21,3 h -6 l -5,-2 -5,10 -2,13 -2,23 h 2 l 1,-10 5,-12 9,-10 8,-5 8,-1 -5,27 -5,10 -9,10 -8,3 h -7 l -2,30 -1,7 4,-4 7,-11 4,-5 13,-10 11,-8 5,-5 h 3 l -1,13 -8,16 -9,11 -11,9 -16,6 -3,5 -6,35 -2,11 v 6 l 11,-13 7,-8 9,-10 10,-10 8,-7 5,-4 6,-4 12,-14 6,-9 6,-8 8,-16 2,-21 5,-17 8,-12 12,-14 11,-11 6,-2 v 9 l -3,20 -4,11 -10,15 -11,12 -6,4 h -2 l -2,4 -6,11 -4,8 11,-6 11,-4 10,-2 h 27 l -1,5 -13,13 -8,4 -9,2 -33,1 -1,-3 -12,14 -5,6 -5,5 20,2 16,4 13,3 8,1 -2,5 -7,7 -9,4 -11,2 -11,-1 -9,-2 -12,-7 -14,-3 -9,7 -8,8 -11,14 -13,16 -9,12 -1,2 17,-8 17,-5 h 27 l 12,1 -2,4 -10,9 -10,7 -10,5 -10,3 -14,1 h -21 l -2,-4 -4,4 -17,39 -9,21 -15,28 -6,12 -1,7 6,2 v -2 l -4,-2 9,-8 16,-10 14,-9 4,-3 -6,2 -1,-5 4,-19 6,-12 11,-13 9,-7 12,-6 h 4 l -1,9 -8,16 -9,12 -11,13 -3,5 6,-2 19,-8 12,-5 9,-7 13,-10 10,-5 9,-2 23,-1 -1,5 -7,8 -5,5 -8,6 -12,5 -9,2 -23,1 v -2 l -10,4 -19,8 -10,7 -17,10 -12,6 -1,2 18,1 11,4 10,6 11,9 5,4 -1,3 -5,3 -4,3 h -14 l -11,-2 -28,-14 -6,-2 h -5 l -5,5 h -2 v 2 h -2 l -2,4 -8,10 -12,19 -7,10 -9,10 -5,-1 v -4 l 7,-14 1,-9 -1,-3 -4,-2 -4,-5 -6,-14 1,-11 4,-10 6,-9 3,1 7,13 7,11 2,4 1,9 -4,12 6,-10 6,-11 9,-16 5,-9 4,-8 2,-10 1,-4 v -8 l -2,-5 -4,-2 -14,-8 -13,-5 -9,-8 -10,-14 -7,-14 v -2 l 5,-1 1,-6 6,1 22,12 10,8 5,5 8,10 8,16 2,1 v -23 l -2,-1 -2,-9 -2,-14 -6,-18 -6,-14 -2,-10 v -16 l 4,-16 5,-6 4,-4 3,1 10,24 4,15 1,14 -4,26 -1,9 -1,21 -2,17 v 12 l 1,4 3,-6 4,-18 7,-17 7,-16 4,-6 4,-13 -1,-7 -12,-16 -4,-28 -4,-16 v -5 l 5,-5 1,-3 5,1 6,5 7,10 5,10 5,19 v 13 l -1,11 h 2 l 3,-13 2,-16 v -16 l -2,-14 v -9 l 3,-1 v -7 l -3,-10 v -3 l -3,1 v 9 l -5,-5 -8,-4 -34,-6 -9,-6 -9,-9 -4,-7 1,-2 h 2 l 2,-8 h 9 l 18,5 10,5 11,8 7,6 4,4 6,3 -7,-12 -12,-16 -4,-4 -2,4 -4,-1 -4,-5 1,-6 -11,-12 -9,-7 -5,-1 1,4 -9,-6 -8,-8 -16,-14 -8,-16 -6,-14 1,-8 -7,-30 v -3 l 6,-1 3,-5 4,2 10,15 12,16 8,16 9,25 6,18 6,9 14,15 6,5 2,1 -3,-7 -10,-11 -5,-8 -1,-5 v -11 l 4,-14 8,-8 2,-3 h 2 l 11,27 2,7 v 17 l -4,17 -1,3 7,11 12,18 9,21 2,9 h 4 l 1,-17 2,-9 1,-11 v -9 l -3,-3 -1,-17 2,-7 4,-1 1,-15 h -2 l -2,-5 v -12 l 1,-5 3,-3 v -5 l -3,-4 v -7 l 3,-6 1,-13 v -43 l -4,1 -1,2 -4,-1 -3,-6 v -2 l -9,-1 -8,-1 -15,-5 -16,-7 -6,-5 -9,-11 -2,-4 1,-5 4,-8 8,1 35,20 12,10 7,8 6,6 3,1 -6,-20 -2,-12 -6,1 -8,-17 -3,-13 v -10 l 4,-18 5,-13 8,-11 z"
     fill="#afafae"
     id="path4" />
  <path
     d="m 628,213 6,1 6,4 6,7 7,15 4,15 2,14 3,2 6,-1 15,-8 13,-4 h 15 l 10,3 6,5 -1,6 -7,9 -10,10 -9,7 -5,-2 -6,-3 4,10 v 10 l -5,10 -7,8 -5,2 h -10 l -8,-4 -6,-9 -2,-10 v -9 l 4,-12 v -3 l -7,6 h -2 l 1,-4 -8,6 -10,7 -12,3 -9,-1 -8,-6 -3,-5 v -7 l 3,-9 9,-10 10,-5 9,-1 -11,-2 -2,-2 -1,-4 v -23 l 4,-8 8,-7 z"
     fill="#afafae"
     id="path7" />
  <path
     d="m 547,0 h 2 l -1,15 -6,18 -9,17 -7,11 -1,5 -7,8 -5,2 -7,8 -7,10 -2,-1 5,-8 1,-4 -4,1 -9,12 -8,7 -6,3 -8,1 -12,-5 -7,-6 -3,-4 v -2 l -3,-1 10,-1 -2,-5 -3,-4 1,-6 4,-6 10,-7 8,-4 -3,-1 -4,1 -5,-8 -8,-15 -2,-5 v -9 l 5,-5 5,-3 8,1 16,7 12,7 8,7 4,-2 11,-10 17,-12 9,-6 z"
     fill="#afafae"
     id="path8" />
  <path
     d="m 647,523 6,1 2,1 1,4 -5,12 -1,9 v 16 l -3,7 1,6 3,5 -1,7 -7,11 -7,6 -4,2 -9,-1 -9,-4 -10,-7 -6,-7 -3,-6 -2,-8 v -9 l 3,-11 v -12 l 5,-10 10,-9 4,-2 4,1 2,4 2,11 4,-2 5,-5 10,-8 z"
     fill="#afafae"
     id="path9" />
  <path
     d="m 544,151 4,2 21,21 5,10 1,8 v 15 l -3,2 h -6 v 2 l -4,-1 -14,-12 -10,-15 -2,-11 1,-9 z"
     fill="#afafae"
     id="path10" />
  <path
     d="m 677,159 h 2 l 6,16 5,14 v 12 l -6,14 -7,10 -4,1 -6,-5 -5,-12 -1,-6 v -19 l 5,-12 10,-11 z"
     fill="#afafae"
     id="path11" />
  <path
     d="m 413,247 4,2 8,14 8,13 2,5 v 13 l -5,15 -1,2 -11,-2 -7,-9 -5,-11 -3,-13 v -7 l 3,-10 z"
     fill="#afafae"
     id="path12" />
  <path
     d="m 377,188 4,1 6,10 7,10 3,7 1,9 -2,12 -6,9 -1,1 h -5 l -7,-7 -8,-17 -2,-8 v -16 l 2,-5 z"
     fill="#afafae"
     id="path13" />
  <path
     d="m 543,110 h 13 l 13,5 14,7 v 3 l -7,7 -10,4 h -24 l -12,-4 -9,-7 v -4 l 8,-6 9,-4 z"
     fill="#afafae"
     id="path14" />
  <path
     d="m 371,380 4,1 11,18 5,10 v 10 l -6,12 -5,5 h -5 l -3,-5 -8,-11 -3,-9 v -17 l 2,-5 z"
     fill="#afafae"
     id="path15" />
  <path
     d="m 461,127 h 17 v 3 l -11,10 -7,8 -11,11 -8,4 h -16 l -6,-2 1,-4 6,-7 7,-8 8,-7 11,-6 z"
     fill="#afafae"
     id="path16" />
  <path
     d="m 715,390 4,4 4,11 v 16 l -7,14 -13,13 -4,6 h -3 l -4,-5 v -8 l 7,-21 8,-17 z"
     fill="#afafae"
     id="path17" />
  <path
     d="m 390,477 h 4 l -2,18 -3,11 -4,7 -8,9 -12,7 -4,1 -1,-1 -1,-12 4,-13 7,-11 9,-9 z"
     fill="#afafae"
     id="path18" />
  <path
     d="m 661,450 h 4 l -1,4 -6,8 -10,19 -10,9 -9,3 h -9 l 1,-5 4,-3 2,-7 8,-11 9,-10 9,-6 z"
     fill="#afafae"
     id="path19" />
  <path
     d="m 680,355 h 4 l -1,6 -8,19 -9,10 -7,4 -2,1 h -7 l -2,-1 1,-10 4,-8 9,-10 10,-8 3,-2 z"
     fill="#afafae"
     id="path20" />
</svg>
