<?xml version="1.0" encoding="UTF-8" standalone="no"?>
<svg
   version="1.1"
   viewBox="0 0 1520 758"
   width="380"
   height="189.5"
   id="svg149"
   sodipodi:docname="sign-logo.svg"
   inkscape:version="1.3.2 (091e20e, 2023-11-25)"
   xmlns:inkscape="http://www.inkscape.org/namespaces/inkscape"
   xmlns:sodipodi="http://sodipodi.sourceforge.net/DTD/sodipodi-0.dtd"
   xmlns="http://www.w3.org/2000/svg"
   xmlns:svg="http://www.w3.org/2000/svg">
  <defs
     id="defs149" />
  <sodipodi:namedview
     id="namedview149"
     pagecolor="#ffffff"
     bordercolor="#000000"
     borderopacity="0.25"
     inkscape:showpageshadow="2"
     inkscape:pageopacity="0.0"
     inkscape:pagecheckerboard="0"
     inkscape:deskcolor="#d1d1d1"
     inkscape:zoom="1.754102"
     inkscape:cx="199.24725"
     inkscape:cy="142.52307"
     inkscape:window-width="1440"
     inkscape:window-height="847"
     inkscape:window-x="0"
     inkscape:window-y="25"
     inkscape:window-maximized="1"
     inkscape:current-layer="svg149" />
  <path
     d="m 544,116 h 26 l 11,3 12,6 14,12 6,8 9,-2 13,-3 8,-1 h 14 l 15,3 14,7 10,9 7,10 7,14 5,18 1,8 1,209 v 110 l 4,7 -1,4 -6,5 -9,-6 h -3 l -1,5 h -2 v -4 l -9,6 -11,9 -10,15 -4,7 9,-2 11,-8 13,-12 2,-3 7,-3 h 8 l 2,2 v 11 l -1,6 v 8 l 7,1 8,-4 11,-9 10,-9 4,-1 2,3 -1,6 -10,12 -13,9 -17,4 -10,-2 -5,-5 -2,-4 v -4 l -5,3 -12,9 -10,4 -5,1 h -9 l -9,-3 -3,-7 2,-9 4,-8 -15,8 -2,4 4,15 1,8 -3,8 -8,6 -14,5 -15,3 h -14 l -8,-3 -5,-6 v -8 l 6,-9 4,-3 h -2 l -15,1 -8,-5 -2,-7 -9,6 -10,5 -12,3 h -8 l -5,-2 -5,-6 -2,-5 -1,-7 h -3 l -1,3 -28,13 -29,14 -28,13 -44,19 -33,14 -37,15 -20,8 -16,9 -18,14 -16,12 -16,13 -13,12 -8,7 -10,9 -7,7 -5,3 h -9 l -1,-1 v -6 l 9,-10 13,-12 12,-11 11,-9 15,-12 5,-3 v -2 l -16,4 -43,13 -36,9 -36,7 -23,3 -15,1 H 41 l -16,-2 -12,-4 -8,-6 -5,-8 v -13 l 4,-10 6,-8 5,-6 8,-7 13,-12 18,-13 29,-19 17,-10 24,-13 27,-14 34,-16 23,-10 59,-23 3,-2 -47,-6 -28,-5 -26,-7 -15,-6 -11,-6 -10,-8 -8,-11 -4,-8 -1,-4 v -19 l 4,-13 9,-17 8,-10 9,-10 11,-11 11,-9 15,-12 19,-14 33,-22 20,-12 19,-11 33,-17 24,-11 27,-11 33,-12 h 2 v -7 l 4,-11 8,-14 9,-11 7,-7 14,-8 10,-4 17,-4 13,-1 v -4 l -3,-1 1,-10 6,-17 9,-15 10,-11 10,-7 16,-8 z"
     fill="#FEFEFD"
     id="path2"
     style="fill:none" />
  <path
     d="m 394,273 h 3 l 2,10 1,7 -8,7 -9,10 -11,18 -4,13 -1,12 v 15 l 3,14 8,16 7,11 6,6 -1,6 -7,16 -3,11 v 31 l 5,17 3,6 v 3 l -8,2 -23,4 -39,10 -23,3 h -17 l -33,-3 -28,-4 -23,-5 -24,-8 -12,-7 -10,-9 -6,-9 -3,-11 v -8 l 4,-16 8,-14 11,-14 15,-15 11,-9 9,-8 13,-10 18,-13 21,-13 22,-14 21,-12 22,-11 19,-10 28,-12 28,-11 z"
     fill="#FEFEFD"
     id="path3"
     style="fill:none" />
  <path
     id="path4"
     style="fill:#000000"
     d="m 543,233 -44,3 -36,6 -34,8 -32,9 -35,13 -27,11 -24,11 -33,17 -19,11 -20,12 -33,22 -19,14 -15,12 -11,9 -11,11 -9,10 -8,10 -9,17 -4,13 v 19 l 1,4 4,8 8,11 10,8 11,6 15,6 26,7 28,5 47,6 -3,2 -59,23 -23,10 -34,16 -27,14 -24,13 -17,10 -29,19 -18,13 -13,12 -8,7 -5,6 -6,8 -4,10 v 13 l 5,8 8,6 12,4 16,2 h 18 l 15,-1 23,-3 36,-7 36,-9 43,-13 16,-4 v 2 l -5,3 -15,12 -11,9 -12,11 -13,12 -9,10 v 6 l 1,1 h 9 l 5,-3 7,-7 10,-9 8,-7 13,-12 16,-13 16,-12 18,-14 16,-9 20,-8 37,-15 33,-14 44,-19 28,-13 29,-14 28,-13 1,-3 h 3 l 1,7 2,5 5,6 5,2 h 8 l 12,-3 10,-5 9,-6 2,7 8,5 15,-1 h 2 l -4,3 -6,9 v 8 l 5,6 8,3 h 14 l 15,-3 14,-5 8,-6 3,-8 -1,-8 -4,-15 2,-4 15,-8 -4,8 -2,9 3,7 9,3 h 9 l 5,-1 10,-4 12,-9 5,-3 v 4 l 2,4 5,5 10,2 17,-4 13,-9 10,-12 1,-6 -2,-3 -4,1 -10,9 -11,9 -8,4 -7,-1 v -8 l 1,-6 v -11 l -2,-2 h -8 l -7,3 -2,3 -13,12 -11,8 -9,2 4,-7 10,-15 11,-9 9,-6 v 4 h 2 l 1,-5 h 3 l 9,6 6,-5 1,-4 -5,-8 -6,-2 h -11 l -4,2 -17,10 -17,13 -22,8 -10,1 -4,-9 -3,-9 v -9 l 3,-4 5,-1 9,6 h 6 l 3,-4 -1,-4 -5,-4 -5,-3 h -14 l -8,3 -6,7 -3,9 1,7 5,13 -1,3 -15,10 -12,5 -12,2 3,-9 9,-20 2,-9 -6,-2 -7,3 -5,8 -10,19 -8,5 -16,8 -8,1 -3,-2 -2,-6 2,-12 6,-18 10,-27 15,-37 14,-34 12,-30 v -6 l -4,-2 h -7 l -2,3 -8,16 -11,28 -10,24 -6,13 -9,22 -9,24 -8,26 h -26 l -7,1 -12,3 -33,11 -27,11 -33,16 -23,11 -10,6 -28,17 -26,16 -19,10 -17,6 -35,12 -39,12 -27,8 -44,10 -35,5 H 43 l -11,-2 -8,-4 -3,-5 v -10 l 1,-3 5,-9 10,-11 15,-13 16,-12 11,-8 17,-11 21,-12 23,-13 45,-22 25,-11 49,-20 40,-14 19,-5 40,-5 23,-4 23,-6 5,-3 2,-5 -1,-3 -3,-3 -13,-2 -32,5 -44,11 -23,3 h -17 l -33,-3 -28,-4 -23,-5 -24,-8 -12,-7 -8,-7 -6,-8 -4,-13 v -8 l 3,-14 6,-11 12,-17 10,-10 8,-7 10,-9 11,-9 9,-7 16,-12 11,-7 24,-15 19,-12 36,-19 20,-10 29,-12 30,-12 7,-2 40,-12 25,-6 39,-7 19,-2 h 22 v 1 h 14 l 9,1 14,3 21,7 20,8 7,5 3,3 5,4 8,5 6,-1 3,-4 -1,-5 -4,-6 -9,-7 -21,-11 -21,-7 -26,-6 -18,-2 z m -84,346 4,1 -19,10 -28,12 -29,12 -32,13 -8,2 3,-3 16,-8 17,-9 33,-15 21,-8 18,-6 z m 160,0 3,2 2,7 v 8 l -4,5 -8,3 -4,1 h -17 l -2,-1 1,-5 15,-11 z" />
  <path
     d="m 401,515 h 6 l 1,5 11,5 15,5 24,4 -1,11 -3,15 1,6 -9,4 -20,7 -25,10 -23,11 -16,8 -17,8 -22,13 -21,13 -25,15 -15,8 -28,10 -49,16 -34,10 -37,9 -20,4 -29,4 H 43 l -14,-3 -7,-5 -2,-4 v -10 l 4,-9 9,-11 8,-8 11,-9 13,-10 14,-10 19,-12 21,-12 27,-15 22,-11 28,-13 31,-13 35,-14 40,-14 16,-4 46,-6 26,-5 z"
     fill="#FDFDFC"
     id="path5"
     style="fill:none" />
  <path
     id="path6"
     d="m 700,571 -1,4 h -2 v 21 l -1,56 v 59 l -3,10 -6,8 -7,6 -10,4 h -18 l -10,-3 -10,-6 -8,-9 -5,-12 -2,-11 v -11 l 3,-15 -2,-8 -4,-1 -5,3 -6,8 -5,10 3,7 v 3 h -16 l -12,-3 -11,-6 -9,-9 -7,-12 -5,-13 -1,-4 v -14 l 5,-12 8,-10 6,-5 h 5 l 16,22 12,9 15,7 14,3 h 17 l 8,-5 3,-7 v -5 l -12,-2 -17,-2 -12,-3 -7,-4 v -2 h -14 l -7,-2 -5,-6 v -8 l 4,-7 7,-5 v -2 l -4,1 -15,1 -6,-3 -4,-8 2,5 -1,4 -5,2 -2,4 -8,7 -7,7 -9,14 -2,6 -1,10 -5,-1 -16,-12 -12,-11 -7,-9 -8,-15 -1,-3 26,-12 -24,11 -23,11 3,1 v 3 l 4,12 8,12 15,15 12,9 19,12 8,6 10,21 8,10 7,5 13,7 15,5 h 15 l 6,2 7,13 7,11 10,9 10,5 16,4 h 18 l 14,-5 14,-9 11,-12 7,-11 4,-11 2,-11 V 586 l -10,-3 -4,-4 z"
     style="fill:#b1b1b0;fill-opacity:1" />
  <path
     id="path7"
     d="m 524,244 -12,1 h 17 l -2,4 -8,11 -12,22 -9,13 -8,6 -9,2 -10,1 h -12 l -18,-4 -11,-6 -4,-3 v -2 h -2 L 418,278 417.01562,266.20312 408,269 l -11,4 v 7 l 3,10 h -2 l -4,4 -12,13 -10,16 -4,11 -2,16 v 15 l 1,7 4,12 10,18 8,9 1,4 -7,16 -4,14 v 31 l 3,11 6,15 h 6 l 15,2 1,4 -1,5 -5,3 3,1 v 5 l 5,3 18,7 16,3 12,1 -3,15 -2,14 2,3 25,-5 h -7 l -1,-2 7,-26 7,-13 9,-10 10,-7 13,-6 9,-3 h 2 l -1,6 -2.11719,5.46875 L 533,490 l 5,-13 h -5 l -15,4 -14,6 -14,9 -10,9 -2,4 h -2 l -4,5 h -17 l -19,-4 -14,-7 -12,-13 -6,-11 -5,-16 v -18 l 3,-12 6,-12 4,1 12,2 7,-1 12,-1 2,-1 h 6 l 6,7 8,8 14,8 12,4 17,-1 8,-2 8,-4 8,-8 1,-5 -4,-5 h -5 l -14,4 h -12 l -7,-2 -8,-5 -8,-7 -6,-9 -4,-12 v -15 l 1,-5 4,-10 4,-6 14,-8 7,-7 v -5 l -3,-4 h -13 l -2,1 -9,6 -9,10 -7,9 -5,10 -3,12 v 9 l 1,7 2,5 h -22 l -5,-1 -12,-5 -7,-6 -7,-10 -4,-10 -4,-15 v -9 l 2,-11 4,-10 6,-10 6,-7 4,-2 6,4 11,7 14,5 15,3 h 17 l 17,-4 10,-5 11,-11 9,-12 10,-16 13,-21 7,-8 -1,-3 z m -12,1 -13,2 -1.67969,0.32031 z M 470.21875,252.44531 462,254 l -1.08594,0.25781 z M 443.25,258.5 437,260 425.39844,263.60156 Z M 509.5,553.42969 509,555 506.3125,562.17188 507,562 Z"
     style="fill:#b1b1b0;fill-opacity:1" />
  <path
     id="path8"
     d="m 544,116 -16,4 -16,8 -10,7 -10,11 -9,15 -6,17 -1,10 3,1 v 4 l -13,1 -20,5 -15,7 -9,7 -9,10 -7,10 -8,16 -1,10 h 4 l 13,-4 8,-2 h -7 l 6,-15 7,-10 7,-6 12,-5 19,-3 7,1 3,4 5,15 2,4 -2.92969,1.95312 L 485,239 l 17,-3 v -3 l -2,-11 -5,-23 v -18 l 2,-9 4,-10 6,-10 8,-7 9,-5 13,-4 h 26 l 7,2 8,4 10,7 5,7 1,6 -7,10 -4,10 v 7 l 2,3 7,1 6,-4 10,-18 6,-5 13,-5 15,-2 h 9 l 11,2 9,5 11,10 7,12 4,13 2,19 v 274 l -1,2 -4,5 -9,7 -16,8 -12,5 -8,2 2,1 v 2 l -2,5 h -6 l -9,-6 -5,1 -4,5 v 9 l 1,5 4,9 -3,-7 v -4 l 13,1 18,-4 14,-6 19,-10 5,-2 5,1 v 3 l -16,9 18,-10 h 11 l 6,1 1,-11 v -98 l -1,-209 -1,-8 -5,-18 -7,-14 -7,-10 -10,-9 -14,-7 -15,-3 h -14 l -8,1 -13,3 -9,2 -6,-8 -14,-12 -12,-6 -11,-3 z"
     style="fill:#b1b1b0;fill-opacity:1" />
  <path
     d="m 1242,199 h 70 l 41,2 39,4 28,4 28,6 23,7 21,9 15,9 8,7 5,9 v 6 l -4,5 h -5 l -6,-7 -6,-9 -10,-7 -16,-8 -23,-9 -24,-7 -23,-5 -33,-4 -33,-2 h -70 l -48,2 -48,4 -42,5 -41,6 -56,11 -42,11 -31,9 -19,7 -20,8 -18,8 -23,13 -10,6 -11,7 -16,13 -11,11 -13,17 -8,16 -4,15 v 20 l 3,14 8,18 10,16 11,14 10,11 v 2 h 2 l 7,8 17,17 8,7 16,15 11,10 8,7 10,9 13,12 8,7 14,12 12,11 8,8 8,7 15,15 8,7 13,13 18,22 5,11 1,8 -3,7 -8,7 -10,4 -16,3 h -37 l -26,-3 -26,-5 -25,-7 -15,-6 -11,-6 -8,-9 -2,-6 1,-9 6,-9 9,-8 14,-9 16,-7 14,-3 h 23 l 17,4 8,4 4,4 -1,5 -2,1 -24,-8 -11,-1 -16,2 -19,8 -9,7 -9,9 -2,5 v 6 l 6,7 12,6 24,7 33,6 23,3 10,1 h 25 l 10,-3 4,-2 3,-6 -1,-6 -5,-9 -11,-13 -10,-10 -7,-8 -13,-13 -8,-7 -15,-14 -8,-7 -16,-15 -10,-9 -8,-7 -15,-14 -10,-8 -9,-9 -8,-7 -7,-7 -5,-4 -5,-5 -16,-15 -11,-11 -7,-8 -10,-12 -10,-13 -6,-10 -7,-15 -5,-17 -2,-13 v -11 l 3,-14 6,-15 7,-11 9,-12 14,-15 14,-12 22,-15 18,-10 17,-9 24,-11 24,-9 41,-13 26,-7 60,-12 38,-6 41,-5 47,-4 z"
     fill="#040404"
     id="path9"
     style="fill:#000000" />
  <path
     id="path12"
     d="m 813,474 -2,4 -3,5 -1,6 3,12 3,25 4,8 9,12 v 13 l -1,5 -3,6 -4,10 -8,15 -1,7 h -2 l -1,7 -1,1 -4,13 -4,4 -1,-18 h -1 l -2,8 -1,-1 -6,-12 -10,-15 -10,-9 -12,-8 -6,-1 -11,8 -7,3 3,2 1,3 10,14 10,9 15,6 14,8 4,5 v 8 l -2,11 -4,10 -6,12 -3,3 -12,19 -2,6 h -2 l 1,-4 v -9 l -1,-3 -8,-12 -8,-13 h -4 l -3,5 -3,4 -3,6 -1,13 5,13 10,12 v 7 l -2,5 -5,7 -2,6 4,2 6,-3 9,-11 10,-17 10,-14 2,-4 h 2 l 4,-5 8,-7 3,1 12,5 11,6 16,7 h 21 l 4,-4 v -2 h 4 l 1,-3 -4,-3 -14,-12 -8,-4 -11,-4 -15,-1 -2,-1 v -2 l 12,-5 12,-7 12,-8 8,-4 10,-6 19,-6 1,4 6,-1 h 4 l 17,-8 17,-4 17,-1 v -1 l -14,-1 9,-7 3,-6 -2,-1 v -2 h -7 l -19,2 -8,3 -14,9 v 2 h -2 l -7,6 -12,6 -21,9 -9,3 3,-5 12,-13 9,-13 8,-16 v -7 l -2,-1 -6,1 -9,5 -7,6 -9,10 -6,10 -4,12 -3,13 1,4 h 3 l 5,-2 -8,5 -10,7 -7,4 -8,5 -7,6 -2,4 h -2 l -4,3 3,-9 4,-9 6,-10 8,-16 1,-5 h 2 l 3,-7 10,-24 3,-7 5,-12 5,-11 h 3 l 5,2 h 26 l 16,-4 12,-6 6,-5 5,-2 -4,-4 -11,-10 -2,-1.75 V 535 l -16,2 -20,7 -8,4 -4,-1 9,-11 10,-13 5,-7 -1,-1 -10,12 h -2 l 1,-11 3,-12 4,1 5,4 -8,-7 -6,-4 h -3 l -4,26 -4,19 h -2 v -28 l -2,-11 -5,-15 -13,-14 z"
     style="fill:#b1b1b0;fill-opacity:1" />
  <path
     id="path13"
     d="m 1151,406 -5,5 -24,57 -19,44 -11,29 -6,22 v 16 l 5,10 7,3 h 8 l 12,-3 21,-12 v 5 l 3,6 8,3 h 7 l 8,-2 11,-6 12,-10 7,-8 13,-14 1,3 -3,15 1,7 3,4 5,3 h 12 l 8,-2 6,-4 v 2 l 3,7 7,3 h 11 l 8,-2 14,-7 11,-9 9,-10 4,-6 1,-5 h -3 l -14,11 -14,9 -13,5 -7,1 -1,-5 7,-16 5,-13 -1,-5 -6,-1 -5,3 -5,8 -8,13 -13,10 -8,3 v -9 l 8,-24 19,-46 14,-32 16,-34 4,-12 -1,-2 -9,-1 -4,2 -4,6 -10,18 -13,23 -13,24 -14,25 -8,13 -26,1 -9,2 -10,5 -15,15 -5,10 -6,10 -12,7 -12,5 -7,1 -4,-3 -1,-8 5,-19 13,-35 15,-38 15,-36 11,-28 -2,-6 z m 35,127 8,1 4,3 -1,5 -7,9 -10,11 -7,8 -10,8 -6,3 h -3 l -1,-2 v -9 l 3,-10 7,-12 8,-8 z" />
  <path
     d="m 1013,241 5,1 3,4 2,12 1,13 9,1 16,-9 16,-4 h 9 l 10,2 8,5 1,1 -1,7 -7,9 -11,11 -7,4 -6,-1 -5,-1 3,10 v 9 l -4,8 -7,9 -7,3 h -7 l -8,-3 -7,-8 -2,-4 -1,-16 3,-16 -7,3 -9,5 -11,7 -8,2 h -9 l -6,-3 -6,-6 -1,-9 4,-10 11,-12 5,-2 9,-1 -1,-2 -7,-1 -2,-2 v -6 l -2,-1 z"
     fill="#b1b1b0"
     id="path14" />
  <path
     d="m 912,0 h 3 v 8 l -3,16 -5,12 -8,15 -6,9 -3,8 -5,7 -8,4 -6,9 -2,-4 -4,-1 -5,8 -10,10 -11,5 -10,-1 -11,-6 -8,-10 4,-2 5,-3 -1,-3 -4,-3 2,-9 5,-5 10,-6 5,-2 -5,-1 h -2 l -11,-20 -4,-12 1,-5 5,-5 6,-3 10,2 19,9 16,11 5,-5 9,-8 18,-13 z"
     fill="#b1b1b0"
     id="path15" />
  <path
     id="path16"
     d="m 566,447 -4,9 -11,27 -4.77344,11.77344 L 547,494 l 5,1 10,15 7,9 6,7 7,6 -1,4 -3.33594,1.66406 L 580,537 l 5,1 v 3 l -3,8 -9,21 -1,6 h 8 l 7,-2 h -5 l 8,-21 7,-10 8,-6 2,1 1,-7 4,-7 5,-5 -9,-1 -7,-3 3,-8 1,-7 -2,-2 -5,-1 -6,5 -2,5 -4,-1 v -2 l -4,-5 -6,-11 -6,-16 -2,-18 -1,-3 z"
     style="fill:#b1b1b0;fill-opacity:1" />
  <path
     d="m 982,348 5,1 -2,24 -4,13 -7,10 -7,9 -4,5 -10,7 -8,10 -4,10 17,-6 7,-2 26,-2 h 6 l 1,4 -4,5 -8,7 -5,5 -10,3 -8,1 h -28 l -4,-1 -6,8 -10,11 h -2 v 4 l 23,3 21,6 10,2 v 4 l -7,7 -8,4 -9,2 h -10 l -16,-4 -6,-4 -10,-4 -7,-1 -8,5 -2,-1 12,-11 11,-9 6,-5 12,-16 8,-12 8,-11 4,-8 1,-6 -1,-2 v -7 l 7,-21 6,-11 12,-14 9,-10 z"
     fill="#b1b1b0"
     id="path19" />
  <path
     d="m 867,313 h 2 l 1,30 1,15 4,-2 9,-16 h 2 l -3,10 -1,4 14,-8 13,-8 7,-6 14,-5 h 19 l -1,5 -6,8 -8,8 -9,6 -15,5 -9,2 -9,1 h -14 l -4,4 -4,16 -1,16 2,1 4,-10 7,-10 10,-8 9,-2 -3,24 -4,10 -7,9 -5,4 -6,3 -8,-1 -2,18 v 21 l 4,-7 8,-11 8,-8 15,-10 3,-3 h 2 v -2 l 4,-2 2,5 -3,12 -7,13 -10,11 -11,8 -4,2 h -10 l -3,5 -4,14 -4,-4 v -3 l 2,-1 2,-23 2,-15 v -13 l -1,-12 1,-12 2,-5 v -15 l -2,-6 v -10 l 2,-5 h 2 z"
     fill="#b1b1b0"
     id="path20" />
  <path
     d="m 1011,525 h 7 l 3,4 -3,9 -1,4 -2,26 -1,3 v 9 l 2,3 v 9 l -8,13 -7,5 -4,1 -13,-13 -8,-7 -15,-15 v -3 -13 l 1,-14 4,-8 9,-9 6,-3 5,1 1,13 5,-1 8,-7 z"
     fill="#b1b1b0"
     id="path21" />
  <path
     id="path22"
     d="m 1068,532 -10,2 h -7 l -8,1 -8,5 -12,16 -4,10 v 7 l 4,9 5,3 12,3 h 10 l 8,-2 10,-5 7,-6 8,-10 4,-8 2,-13 -4,-7 -6,-4 z m -8,10 h 9 l 4,2 1,5 -3,8 -6,9 -8,7 -10,5 -8,1 -4,-3 -1,-6 4,-11 8,-10 10,-6 z" />
  <path
     d="m 744,287 5,5 14,20 9,14 10,26 4,14 2,8 -1,16 -1,-2 -7,-2 -20,-16 -6,-7 -8,-16 -5,-13 -2,-16 -3,-15 -1,-11 h 5 z"
     fill="#b1b1b0"
     id="path24" />
  <path
     d="m 865,580 4,1 v 7 l -8,16 -9,13 -12,13 -3,5 9,-3 21,-9 12,-6 7,-6 h 2 v -2 l 14,-9 8,-3 19,-2 h 7 v 2 l 2,1 -3,6 -9,7 14,1 v 1 l -17,1 -17,4 -17,8 h -4 l -6,1 -1,-4 -19,6 -10,6 -8,4 -12,8 -12,7 -7,2 6,-7 15,-9 -4,1 h -3 l -1,-4 3,-13 4,-12 6,-10 9,-10 7,-6 9,-5 z"
     fill="#b1b1b0"
     id="path25" />
  <path
     d="m 619,372 h 23 l 13,3 7,5 v 7 l -7,6 -5,3 -8,-1 -11,-3 h -13 l -14,3 -16,7 -7,6 -5,-1 h -7 l -8,16 -6,15 -2,-2 v -4 l -2,5 -2,-1 3,-10 6,-14 6,-8 10,-10 13,-10 16,-8 z"
     fill="#b1b1b0"
     id="path28" />
  <path
     d="m 787,486 h 2 l 10,22 5,15 1,6 v 11 l -4,22 -3,25 -3,-1 -2,-9 -4,-5 -7,-20 -6,-13 -2,-9 v -17 l 2,-10 5,-10 z"
     fill="#b1b1b0"
     id="path29" />
  <path
     d="m 865,153 4,2 3,10 v 23 l -4,17 -5,12 -3,6 v 20 l -2,-4 v -4 l -8,2 -6,-9 -3,-11 -1,-7 v -9 l 3,-16 5,-14 12,-15 z"
     fill="#b1b1b0"
     id="path30" />
  <path
     d="m 796,226 6,1 26,15 12,8 13,12 7,8 6,3 -1,-7 -3,-7 -1,-6 h 3 l 4,13 1,14 -5,1 -8,-1 -3,-8 -6,-2 -3,3 -13,-3 -21,-9 -6,-4 -10,-10 -5,-9 1,-5 z"
     fill="#b1b1b0"
     id="path31" />
  <path
     d="m 933,266 3,1 -8,11 -3,5 -5,3 -7,10 -15,30 -5,5 -5,3 -1,-4 -2,-14 -6,-18 v -6 l 29,-16 19,-8 z"
     fill="#e6e5e3"
     id="path33" />
  <path
     d="m 909,153 4,1 5,5 13,12 5,6 4,11 1,4 v 13 l -2,4 -7,1 v 2 l -5,-1 -7,-7 -8,-7 -8,-14 -2,-10 1,-8 4,-7 z"
     fill="#b1b1b0"
     id="path34" />
  <path
     d="m 816,349 4,4 8,19 2,8 v 8 l -5,25 4,8 12,18 5,10 3,9 7,17 h -3 l -6,-13 -6,-16 -4,-8 -12,-17 -5,-4 -6,2 -1,-3 -2,-1 -2,-6 h -2 l -2,-11 v -20 l 4,-15 z"
     fill="#B1B1B0"
     id="path35"
     style="fill:none" />
  <path
     d="m 780,249 h 2 l 11,17 7,12 1,4 v 12 l -4,15 -4,3 -9,-2 -7,-8 -5,-11 -2,-8 v -17 l 4,-10 z"
     fill="#b1b1b0"
     id="path36" />
  <path
     d="m 1043,160 3,1 4,11 6,17 v 14 l -4,9 -6,9 v 1 l -9,1 -5,-2 -3,-7 -2,-15 v -14 l 4,-11 8,-10 z"
     fill="#b1b1b0"
     id="path37" />
  <path
     d="m 743,189 4,1 7,11 8,13 1,3 v 15 l -3,10 -5,7 -5,-1 -5,-5 -7,-10 -4,-10 -1,-5 v -18 l 2,-5 6,-5 z"
     fill="#b1b1b0"
     id="path38" />
  <path
     d="m 909,111 h 13 l 12,5 15,7 v 3 l -8,8 -10,3 -8,1 h -10 l -12,-2 -8,-4 -6,-6 1,-4 9,-7 7,-3 z"
     fill="#b1b1b0"
     id="path39" />
  <path
     d="m 738,380 4,4 12,19 3,6 v 10 l -5,12 -5,5 -7,-1 -7,-8 -4,-10 -2,-9 v -14 l 4,-6 z"
     fill="#b1b1b0"
     id="path42" />
  <path
     d="m 830,128 h 14 l -1,4 -12,12 -7,8 -11,10 -7,2 h -15 l -7,-2 2,-5 11,-12 5,-5 8,-6 9,-4 z"
     fill="#b1b1b0"
     id="path43" />
  <path
     d="m 1082,392 3,3 5,14 v 11 l -4,12 -7,8 -14,14 -4,-1 -2,-2 v -11 l 4,-14 10,-22 6,-9 z"
     fill="#b1b1b0"
     id="path44" />
  <path
     d="m 755,479 h 6 l -1,5 -1,2 -3,20 -4,8 -10,10 -10,6 -4,-1 -3,-5 1,-10 3,-10 7,-11 10,-9 6,-4 z"
     fill="#b1b1b0"
     id="path46" />
  <path
     d="m 597,254 10,3 17,7 5,5 2,14 v 12 l -3,6 -9,5 h -5 l -4,-5 -1,-16 -4,-16 -5,-8 z"
     fill="#b1b1b0"
     id="path47" />
  <path
     d="m 1021,452 h 10 l -2,4 -6,9 -9,17 -8,8 -8,4 h -7 l -4,-3 2,-5 8,-13 10,-11 9,-9 z"
     fill="#b1b1b0"
     id="path51" />
  <path
     d="m 560,225 h 21 l 15,4 12,6 12,10 v 3 l -10,-3 -17,-5 -26,-5 -11,-1 h -21 v -1 h 7 l 1,-3 8,-3 z"
     fill="#aeaead"
     id="path54" />
  <path
     d="m 897,282 4,1 -1,14 -3,17 v 4 h 2 l -1,4 -6,10 -5,2 -2,-18 -6,-18 v -6 z"
     fill="#b1b1b0"
     id="path55" />
  <path
     d="m 1045,357 h 4 v 6 l -4,8 -3,8 -6,8 -7,6 -4,3 h -7 l -2,-6 1,-9 6,-9 13,-12 z"
     fill="#b1b1b0"
     id="path56" />
  <path
     d="m 778,416 h 9 l 5,2 2,-1 3,10 9,17 3,4 -1,2 -13,-2 -11,-7 -8,-8 -2,-4 1,-6 z"
     fill="#b1b1b0"
     id="path59" />
  <path
     d="m 826,546 h 1 v 13 l -3,9 -4,10 v 2 l -3,3 -7,14 -1,5 h -2 v 7 l -3,8 -4,9 -3,1 -1,-6 -1,-8 -1,5 -3,-2 1,-2 v -10 l -3,-16 -2,-17 v -5 l 2,3 2,4 2,2 3,11 2,1 1,-15 h 1 v 14 l -2,34 h 2 l 2,-9 11,-27 7,-15 5,-13 z"
     fill="#e6e5e3"
     id="path66" />
  <path
     d="m 991,215 h 8 l 10,6 3,8 -29,8 -3,-1 v -8 l 7,-9 z"
     fill="#b3b3b1"
     id="path68" />
  <path
     d="m 972,425 h 28 l 1,4 -7,9 -11,11 -7,3 -7,1 -24,1 -13,2 -5,3 -7,8 -3,3 -2,-1 12,-13 4,-6 4,1 h 28 l 11,-2 8,-3 10,-10 h 2 l 2,-4 1,-4 -24,1 -10,2 -14,4 -5,2 h -3 l 1,-6 3,-5 1,2 -1,4 6,-1 16,-5 z"
     fill="#e6e5e3"
     id="path72" />
  <path
     d="m 933,266 3,1 -8,11 -5,4 -6,4 -7,12 -3,5 -2,-1 2,-12 v -9 l -3,-3 23,-10 z"
     fill="#b1b1b0"
     id="path73" />
  <path
     d="m 598,497 5,1 2,2 -1,7 -6,10 -7,6 h -5 l -1,-1 v -7 l 5,-10 6,-7 z"
     fill="#040404"
     id="path74" />
  <path
     d="m 1281,497 h 5 l 3,3 -1,7 -6,10 -5,5 h -8 l -1,-4 7,-14 z"
     fill="#040404"
     id="path76" />
  <path
     d="m 821,431 4,2 7,8 9,9 1,9 h 4 l 4,7 v 4 l -5,-1 -10,-11 -13,-18 z"
     fill="#f4f4f3"
     id="path77" />
  <path
     d="m 890,254 4,1 3,8 v 4 l 3,1 -19,9 -2,-3 -1,-9 1,-2 h 2 l 1,-3 6,-5 z"
     fill="#b3b3b2"
     id="path79" />
  <path
     d="m 1044,354 5,1 2,2 -1,7 -4,8 -2,7 -7,9 -10,9 -4,2 h -6 l -4,-5 v -8 l 4,-10 8,-9 14,-11 z m 1,3 -10,4 -13,12 -5,8 -1,9 2,6 h 7 l 7,-5 5,-5 6,-8 4,-11 2,-4 v -6 z"
     fill="#e6e5e3"
     id="path80" />
  <path
     d="m 792,244 14,14 17,8 12,4 9,2 3,-3 6,2 2,2 1,7 h 12 v -13 h 1 l 2,16 -10,2 h -4 l -5,-10 -4,-3 -2,3 -7,-1 -19,-7 -11,-5 -10,-6 -6,-7 z"
     fill="#e6e5e3"
     id="path81" />
  <path
     d="m 943,233 h 2 l -1,13 -4,3 -12,4 -5,1 -2,-2 4,-1 2,-4 12,-11 z"
     fill="#b1b1b0"
     id="path82" />
  <path
     d="m 985,344 4,1 v 12 l -3,18 -3,10 -2,1 2,-9 2,-16 1,-12 -6,1 -7,7 -9,11 -7,9 -6,13 -1,-4 9,-17 8,-8 7,-8 5,-6 z"
     fill="#e6e5e3"
     id="path83" />
  <path
     d="m 551,227 14,2 v 1 l -9,1 12,1 32,7 11,4 8,1 1,4 -10,-3 -17,-5 -26,-5 -11,-1 h -21 v -1 h 7 l 1,-3 z"
     fill="#d8d7d5"
     id="path84" />
  <path
     d="m 949,390 1,4 -4,12 v 7 l 1,4 -4,10 -8,12 -7,10 -9,12 -8,10 -10,8 -3,3 -2,-1 7,-7 h 2 v -2 l 8,-7 8,-10 9,-14 1,-2 h 2 l 2,-4 6,-11 2,-7 1,-12 z"
     fill="#e6e5e3"
     id="path85" />
  <path
     d="m 772,618 6,2 7,5 3,4 v 8 l -3,14 -5,12 -6,9 -7,10 -1,-2 8,-14 7,-16 3,-9 1,-11 -5,-6 -8,-5 z"
     fill="#e6e5e3"
     id="path86" />
  <path
     d="m 702,536 5,1 8,5 2,-1 -1,7 h -9 l -9,3 -1,-9 v -4 h 2 v 4 h 2 v -5 z"
     fill="#b3b3b2"
     id="path87" />
  <path
     d="m 1015,522 7,2 1,2 -1,9 -3,9 -1,19 -3,9 -1,8 h -1 v -9 l 2,-13 1,-16 4,-11 -2,-5 h -7 l -11,7 -4,2 5,-6 10,-6 z"
     fill="#e6e5e3"
     id="path88" />
  <path
     d="m 943,338 v 3 l -9,9 -11,7 -10,4 -9,2 -27,2 -4,5 1,-6 4,-3 h 14 l 13,-2 15,-4 8,-4 9,-7 z"
     fill="#e6e5e3"
     id="path90" />
  <path
     d="m 1016,451 h 16 l -1,2 h -10 l -6,2 -5,5 h -2 l -2,4 -9,10 -7,12 -2,5 3,2 h 7 l 5,-1 -4,3 -2,1 -11,-1 -3,-3 4,-7 7,-11 9,-10 7,-8 z"
     fill="#e6e5e3"
     id="path92" />
  <path
     d="m 821,431 4,2 7,8 9,9 1,6 -4,-2 -7,-6 -5,-4 -4,-4 z"
     fill="#b1b1b0"
     id="path94" />
  <path
     d="m 792,414 h 1 v 5 l -6,-2 -9,-1 -1,5 -2,4 1,6 7,8 10,7 9,2 8,2 1,2 -15,-2 -10,-5 -8,-7 -6,-9 1,-7 4,-7 h 12 l 3,1 z"
     fill="#e5e4e2"
     id="path95" />
  <path
     d="m 882,415 2,1 -6,4 -9,3 -2,27 4,-2 -2,6 -4,4 v -22 l 1,-12 2,-6 h 8 z"
     fill="#e6e5e3"
     id="path96" />
  <path
     d="m 844,673 4,2 11,9 2,4 -7,5 h -2 l -1,3 h -24 l -18,-8 -4,-4 6,2 15,7 3,1 h 21 l 2,-3 h 2 v -2 l 4,-1 -1,-3 -10,-8 z"
     fill="#e6e5e3"
     id="path99" />
  <path
     d="m 450,359 1,2 -5,13 -1,6 v 9 l 1,7 1,5 -4,1 h -18 l -13,-4 -2,-2 5,1 12,3 h 15 l 2,-1 -1,-5 v -17 l 4,-13 z"
     fill="#e6e5e3"
     id="path100" />
  <path
     d="m 813,472 6,1 9,9 4,5 -1,2 -8,-8 -4,-5 -6,-2 -2,7 -3,4 2,16 -2,-3 -4,-14 1,-4 4,-2 z"
     fill="#e6e5e3"
     id="path101" />
  <path
     d="m 982,524 5,1 2,14 4,-1 -3,3 -3,-1 -2,-13 -6,1 -6,4 -8,9 -2,5 -1,14 h -1 v -15 l 5,-10 9,-8 z"
     fill="#e6e5e3"
     id="path102" />
  <path
     d="m 894,488 11,2 6,3 8,5 14,3 h 10 l 9,-1 -2,2 -9,2 -11,-1 -14,-4 -14,-7 -9,-1 -2,-1 z"
     fill="#e6e5e3"
     id="path103" />
  <path
     d="m 872,370 h 1 l -1,20 5,-6 1,2 -4,8 -3,7 -3,-3 1,-16 z"
     fill="#e6e5e3"
     id="path104" />
  <path
     d="m 913,470 2,1 -1,3 h 10 l 15,2 21,6 10,2 -1,4 -2,-2 -17,-4 -14,-4 -23,-3 -1,-3 z"
     fill="#e6e5e3"
     id="path105" />
  <path
     d="m 874,623 h 4 l 1,5 h -7 l -20,7 -5,1 4,-3 10,-6 z"
     fill="#e6e5e3"
     id="path106" />
  <path
     d="m 689,523 3,1 h -2 v 3 l -8,5 -11,5 -10,1 2,-2 19,-9 z"
     fill="#e6e5e3"
     id="path107" />
  <path
     d="m 926,594 h 12 l 1,1 v 6 l -2,3 h -2 l 2,-6 -1,-3 -26,3 -12,5 -4,3 -2,-1 9,-6 11,-4 z"
     fill="#e6e5e3"
     id="path108" />
  <path
     d="m 944,239 h 1 v 10 l -21,8 -4,-1 -4,-2 7,-1 5,-1 14,-5 1,-1 z"
     fill="#dededc"
     id="path110" />
  <path
     d="m 824,627 h 1 v 8 l -1,6 10,-3 -3,3 -15,9 -6,5 -3,-1 11,-8 3,-2 z"
     fill="#e6e5e3"
     id="path111" />
  <path
     d="m 868,267 h 1 l 2,16 -10,2 h -4 l -2,-5 h 13 z"
     fill="#e2e1df"
     id="path113" />
  <path
     d="m 553,429 1,4 v 7 l -3,8 -4,-4 1,-10 2,2 z"
     fill="#dcdcda"
     id="path114" />
  <path
     d="m 742,285 5,1 3,5 -1,2 -5,-5 -5,5 -5,-1 1,2 v 8 h -1 l -1,-12 7,-3 z"
     fill="#e6e5e3"
     id="path115" />
  <path
     d="m 1017,288 h 2 v 7 l -2,9 v 16 h -1 l -1,-6 v -11 l 2,-10 -8,-1 3,-2 z"
     fill="#e6e5e3"
     id="path116" />
  <path
     d="m 410,524 24,8 18,3 v 1 l -14,-1 -12,-2 -16,-8 z"
     fill="#e6e5e3"
     id="path117" />
  <path
     d="m 826,443 3,2 v 2 l 5,2 v 2 l 4,2 2,3 -3,1 -1,2 -10,-13 z"
     fill="#dedddb"
     id="path118" />
  <path
     d="m 908,412 h 4 l 1,2 v 7 l -2,3 v -7 l -2,-2 -3,1 v 2 l -8,6 -6,4 -2,-1 12,-9 z"
     fill="#e6e5e3"
     id="path119" />
  <path
     d="m 805,658 3,1 v 1 l 19,3 9,4 2,2 -5,-1 -11,-4 -15,-1 -3,-2 z"
     fill="#e6e5e3"
     id="path120" />
  <path
     d="m 790,655 1,3 -4,9 5,-3 4,-2 -6,8 -7,4 1,-5 5,-12 z"
     fill="#e6e5e3"
     id="path121" />
  <path
     d="m 787,675 3,1 -5,4 -15,15 v -3 l 3,-4 h 2 l 2,-4 8,-8 z"
     fill="#eeedeb"
     id="path123" />
  <path
     d="m 886,342 1,3 v 3 l 6,-2 4,-1 -3,3 -10,6 h -2 l 1,-6 z"
     fill="#e6e5e3"
     id="path124" />
  <path
     d="m 847,622 v 3 l -3,5 4,2 -9,4 -3,-1 6,-8 z"
     fill="#e6e5e3"
     id="path125" />
  <path
     d="m 692,522 5,1 v 3 l -14,7 2,-4 5,-2 v -3 h 2 z"
     fill="#f1f0ef"
     id="path127" />
  <path
     d="m 884,460 2,1 -8,5 -4,2 h -8 l -2,2 1,-4 2,-2 h 10 z"
     fill="#e6e5e3"
     id="path128" />
  <path
     d="m 844,636 3,1 -15,10 -8,5 -3,-1 11,-7 z"
     fill="#e6e5e3"
     id="path129" />
  <path
     d="m 837,446 h 4 l 2,3 4,9 -1,3 v -2 h -4 v -2 l -2,-1 h 2 l -3,-7 z"
     fill="#e6e5e3"
     id="path130" />
  <path
     d="m 1072,294 2,1 -5,4 h -7 l -4,-1 1,8 -2,-3 -2,-7 5,-1 3,2 6,-1 z"
     fill="#e6e5e3"
     id="path131" />
  <path
     d="m 794,224 7,1 5,3 -2,1 -4,-2 -5,1 -5,6 v 6 l -2,-1 v -6 l 4,-5 z"
     fill="#e6e5e3"
     id="path132" />
  <path
     d="m 798,303 h 1 l -1,8 -2,3 -7,-1 -5,-2 v -1 l 9,1 4,-4 z"
     fill="#e6e5e3"
     id="path133" />
  <path
     d="m 697,571 h 3 l -1,4 h -2 v 21 h -1 v -21 l -2,-1 z"
     fill="#dcdbd9"
     id="path134" />
  <path
     d="m 737,654 4,2 -1,2 h -4 l -5,8 -3,6 -1,-4 4,-5 4,-8 z"
     fill="#e6e5e3"
     id="path135" />
  <path
     d="m 944,239 h 1 v 10 l -12,4 1,-3 9,-4 z"
     fill="#dbdbd9"
     id="path137" />
  <path
     d="m 850,469 3,3 2,5 3,3 -4,-1 -4,-4 v -2 h -2 l -1,-3 z"
     fill="#d4d3d2"
     id="path138" />
  <path
     d="m 551,227 14,2 v 1 h -20 l 2,-2 z"
     fill="#c9c8c7"
     id="path139" />
  <path
     d="m 960,560 h 1 l 1,13 1,3 -4,-1 -2,-2 h 2 v -8 z"
     fill="#e3e2e0"
     id="path140" />
  <path
     d="m 757,685 h 1 l 1,5 3,-1 -2,6 -2,3 h -2 z"
     fill="#e6e5e3"
     id="path141" />
  <path
     d="m 858,466 h 1 v 10 l -4,2 v -3 -3 h 2 v -5 z"
     fill="#e6e5e3"
     id="path142" />
  <path
     d="m 619,664 3,1 1,7 -2,6 -1,-4 z"
     fill="#e6e5e3"
     id="path143" />
  <path
     d="m 903,548 h 5 l -5,4 -10,6 -2,-1 9,-6 z"
     fill="#e5e5e3"
     id="path144" />
  <path
     d="m 736,431 6,4 h 5 3 l -4,3 h -5 l -5,-5 z"
     fill="#e6e5e3"
     id="path145" />
  <path
     d="m 982,258 8,1 1,3 -2,1 h -7 l 3,-1 v -2 h -3 z"
     fill="#e6e5e3"
     id="path147" />
  <path
     d="m 869,84 2,4 -6,8 -2,-1 5,-9 z"
     fill="#dad9d7"
     id="path148" />
  <path
     d="m 459,579 4,1 -11,5 v -4 z"
     fill="#d1d1cf"
     id="path149" />
</svg>
