<?xml version="1.0" encoding="UTF-8" standalone="no"?>
<svg
   version="1.1"
   viewBox="0 0 758 742.08966"
   width="189.5"
   height="185.52242"
   id="svg149"
   sodipodi:docname="favicon.svg"
   inkscape:version="1.3.2 (091e20e, 2023-11-25)"
   xmlns:inkscape="http://www.inkscape.org/namespaces/inkscape"
   xmlns:sodipodi="http://sodipodi.sourceforge.net/DTD/sodipodi-0.dtd"
   xmlns="http://www.w3.org/2000/svg"
   xmlns:svg="http://www.w3.org/2000/svg">
  <defs
     id="defs149" />
  <sodipodi:namedview
     id="namedview149"
     pagecolor="#ffffff"
     bordercolor="#000000"
     borderopacity="0.25"
     inkscape:showpageshadow="2"
     inkscape:pageopacity="0.0"
     inkscape:pagecheckerboard="0"
     inkscape:deskcolor="#d1d1d1"
     inkscape:zoom="1.3296183"
     inkscape:cx="204.19393"
     inkscape:cy="133.12091"
     inkscape:window-width="1440"
     inkscape:window-height="847"
     inkscape:window-x="0"
     inkscape:window-y="25"
     inkscape:window-maximized="1"
     inkscape:current-layer="svg149" />
  <path
     d="m 550.47715,111.48396 h 26.30957 l 11.13097,2.95135 12.14288,5.9027 14.16669,11.80541 6.07144,7.87028 9.10716,-1.96757 13.15478,-2.95135 8.09526,-0.98379 h 14.16669 l 15.1786,2.95136 14.16669,6.88649 10.11906,8.85405 7.08335,9.83785 7.08334,13.77298 5.05954,17.70811 1.0119,7.87028 1.01191,205.61091 v 108.21627 l 4.04762,6.88649 -1.0119,3.93514 -6.07144,4.91892 -9.10716,-5.90271 h -3.03572 l -1.01191,4.91892 h -2.02381 v -3.93513 l -9.10716,5.9027 -11.13097,8.85406 -10.11906,14.75676 -4.04763,6.88649 9.10716,-1.96757 11.13097,-7.87027 13.15478,-11.80541 2.02382,-2.95135 7.08334,-2.95136 h 8.09526 l 2.02381,1.96757 v 10.82163 l -1.01191,5.90271 v 7.87027 l 7.08335,0.98378 8.09525,-3.93513 11.13097,-8.85406 10.11907,-8.85406 4.04762,-0.98378 2.02382,2.95135 -1.01191,5.9027 -10.11907,11.80541 -13.15478,8.85406 -17.20241,3.93514 -10.11907,-1.96757 -5.05953,-4.91892 -2.02381,-3.93514 v -3.93513 l -5.05953,2.95135 -12.14288,8.85406 -10.11907,3.93513 -5.05953,0.98379 h -9.10716 l -9.10716,-2.95135 -3.03572,-6.88649 2.02381,-8.85406 4.04763,-7.87028 -15.1786,7.87028 -2.02381,3.93513 4.04763,14.75677 1.0119,7.87027 -3.03572,7.87028 -8.09525,5.9027 -14.16669,4.91892 -15.1786,2.95136 h -14.16669 l -8.09525,-2.95136 -5.05953,-5.9027 v -7.87028 l 6.07143,-8.85405 4.04763,-2.95136 h -2.02381 l -15.1786,0.98379 -8.09525,-4.91892 -2.02382,-6.88649 -9.10715,5.9027 -10.11907,4.91892 -12.14288,2.95136 h -8.09525 l -5.05953,-1.96757 -5.05954,-5.90271 -2.02381,-4.91892 -1.0119,-6.88649 h -3.03572 l -1.01191,2.95135 -28.33338,12.7892 -29.34529,13.77298 -28.33339,12.78919 -44.52388,18.69191 -33.39292,13.77297 -37.44054,14.75677 -20.23813,7.87027 -16.1905,8.85406 -18.21432,13.77298 -16.19051,11.80541 -16.1905,12.7892 -13.15479,11.80541 -8.09525,6.88649 -10.11906,8.85406 -7.08335,6.88649 -5.05953,2.95135 h -9.10716 l -1.01191,-0.98378 v -5.90271 l 9.10716,-9.83784 13.15479,-11.80541 12.14288,-10.82163 11.13097,-8.85406 15.1786,-11.80541 5.05953,-2.95135 v -1.96757 l -16.19051,3.93514 -43.51198,12.78919 -36.42863,8.85406 -36.428637,6.88649 -23.27385,2.95135 -15.178598,0.98379 H 41.488168 L 25.297663,711.59236 13.154785,707.65722 5.0595326,701.75452 0,693.88424 v -12.78919 l 4.0476261,-9.83785 6.0714389,-7.87027 5.059533,-5.90271 8.095252,-6.88649 13.154785,-11.80541 18.214317,-12.78919 29.34529,-18.6919 17.202408,-9.83785 24.28576,-12.78919 27.32148,-13.77298 34.40482,-15.74055 23.27385,-9.83784 59.70248,-22.62704 3.03572,-1.96757 -47.5596,-5.90271 -28.33339,-4.91892 -26.30957,-6.88649 -15.1786,-5.9027 -11.13097,-5.90271 -10.11906,-7.87027 -8.09525,-10.82163 -4.04763,-7.87027 -1.01191,-3.93514 v -18.6919 l 4.04763,-12.7892 9.10716,-16.72433 8.09525,-9.83784 9.10716,-9.83784 11.13097,-10.82163 11.13097,-8.85406 15.1786,-11.80541 19.22622,-13.77298 33.39292,-21.64325 20.23813,-11.80542 19.22622,-10.82162 33.39292,-16.72434 24.28576,-10.82162 27.32147,-10.82163 33.39292,-11.80541 h 2.02381 v -6.88649 l 4.04763,-10.82163 8.09525,-13.77298 9.10716,-10.82162 7.08334,-6.88649 14.16669,-7.87028 10.11907,-3.93513 17.20241,-3.93514 13.15479,-0.98379 v -3.93513 l -3.03572,-0.98379 1.0119,-9.83784 6.07144,-16.72433 9.10716,-14.75677 10.11907,-10.82162 10.11906,-6.88649 16.19051,-7.87028 z"
     fill="#FEFEFD"
     id="path2"
     style="fill:none;stroke-width:0.997746" />
  <path
     d="m 398.69117,265.93808 h 3.03572 l 2.02381,9.83785 1.01191,6.88649 -8.09525,6.88649 -9.10716,9.83784 -11.13097,17.70812 -4.04763,12.78919 -1.01191,11.80541 v 14.75677 l 3.03572,13.77298 8.09526,15.74055 7.08334,10.82162 6.07144,5.90271 -1.01191,5.9027 -7.08334,15.74055 -3.03572,10.82163 v 30.49731 l 5.05953,16.72433 3.03572,5.90271 v 2.95135 l -8.09525,1.96757 -23.27385,3.93514 -39.46435,9.83784 -23.27386,2.95135 h -17.20241 l -33.39291,-2.95135 -28.33338,-3.93514 -23.27385,-4.91892 -24.28576,-7.87027 -12.14288,-6.88649 -10.11906,-8.85406 -6.07144,-8.85406 -3.03572,-10.82163 v -7.87027 l 4.04762,-15.74055 8.09526,-13.77298 11.13097,-13.77298 15.17859,-14.75676 11.13098,-8.85406 9.10716,-7.87027 13.15478,-9.83785 18.21432,-12.78919 21.25003,-12.7892 22.26195,-13.77298 21.25004,-11.80541 22.26194,-10.82163 19.22622,-9.83784 28.33339,-11.80541 28.33338,-10.82163 z"
     fill="#FEFEFD"
     id="path3"
     style="fill:none;stroke-width:0.997746" />
  <path
     d="m 405.77452,504.01388 h 6.07144 l 1.0119,4.91892 11.13097,4.91892 15.1786,4.91892 24.28576,3.93514 -1.01191,10.82163 -3.03572,14.75676 1.01191,5.90271 -9.10716,3.93513 -20.23813,6.88649 -25.29766,9.83784 -23.27385,10.82163 -16.19051,7.87028 -17.20241,7.87027 -22.26194,12.7892 -21.25004,12.78919 -25.29766,14.75676 -15.1786,7.87028 -28.33338,9.83784 -49.58342,15.74055 -34.40482,9.83784 -37.44055,8.85406 -20.238127,3.93514 -29.345289,3.93514 H 43.511981 l -14.166692,-2.95136 -7.083345,-4.91892 -2.023813,-3.93514 v -9.83784 l 4.047626,-8.85406 9.107158,-10.82162 8.095253,-7.87028 11.130971,-8.85406 13.154785,-9.83784 14.166692,-9.83784 19.226223,-11.80541 21.250041,-11.80541 27.32147,-14.75677 22.26195,-10.82163 28.33338,-12.78919 31.3691,-12.7892 35.41673,-13.77298 40.47626,-13.77298 16.19051,-3.93513 46.5477,-5.90271 26.30956,-4.91892 z"
     fill="#FDFDFC"
     id="path5"
     style="fill:none;stroke-width:0.997746" />
  <path
     id="path4"
     style="fill:#f4d7d7;stroke-width:1.1553"
     d="m 539.51489,12.033528 -42.75681,4.120508 -34.98283,8.241015 -33.03935,10.98802 -31.09587,12.361521 -34.01108,17.855533 -26.23712,15.108526 -23.3219,15.108527 -32.06762,23.349542 -18.46316,15.10854 -19.43493,16.48202 -32.06758,30.21705 -18.46317,19.22904 -14.57616,16.48202 -10.68923,12.36153 -10.68919,15.10851 -8.7457,13.73503 -7.77397,13.73503 -8.74571,23.34954 -3.88699,17.85554 v 26.09655 l 0.97176,5.49401 3.88698,10.98802 7.77396,15.10851 9.71744,10.98802 10.68922,8.24103 14.57618,8.24101 25.26538,9.61451 27.20886,6.86752 45.67206,8.24101 -2.91522,2.747 -57.33301,31.59056 -22.35013,13.73504 -33.03935,21.97605 -26.23714,19.229 -23.3219,17.85555 -16.51967,13.73502 -28.18062,26.09654 -17.49142,17.85553 -12.632692,16.48204 -7.773964,9.61451 -4.85873,8.24102 -5.830472,10.98803 -3.886982,13.73501 v 17.85553 l 4.858728,10.98802 7.773966,8.24104 11.660946,5.49399 15.547928,2.74701 h 17.491421 l 14.576182,-1.37351 22.350149,-4.1205 34.98284,-9.61453 34.98284,-12.36152 41.78506,-17.85553 15.54794,-5.494 v 2.74699 l -4.85876,4.12052 -14.57617,16.48202 -10.68919,12.36152 -11.66094,15.10854 -12.63269,16.48202 -8.74573,13.73502 v 8.24103 l 0.97175,1.37349 h 8.74571 l 4.85872,-4.1205 6.80224,-9.61453 9.71744,-12.36152 7.77396,-9.61451 12.6327,-16.48204 15.54793,-17.85551 15.54792,-16.48204 17.49141,-19.22904 15.54793,-12.36152 19.43493,-10.988 35.95458,-20.60254 32.0676,-19.22905 42.7568,-26.09655 27.20888,-17.85552 28.18064,-19.22903 27.20887,-17.85555 0.97173,-4.1205 h 2.91524 l 0.97175,9.61451 1.94349,6.86753 4.85873,8.241 4.85871,2.74702 h 7.77399 l 11.66094,-4.12051 9.71745,-6.86751 8.7457,-8.24104 1.9435,9.61454 7.77395,6.8675 14.5762,-1.37349 h 1.94351 l -3.88699,4.12051 -5.83048,12.36151 v 10.98802 l 4.85871,8.24101 7.77397,4.1205 h 13.60444 l 14.57618,-4.1205 13.60445,-6.8675 7.77396,-8.24101 2.91524,-10.98804 -0.97175,-10.988 -3.88698,-20.60254 1.94349,-5.49401 14.57618,-10.98803 -3.88699,10.98803 -1.94347,12.3615 2.91523,9.61454 8.7457,4.12051 h 8.74571 l 4.85874,-1.37351 9.71745,-5.49399 11.66095,-12.36156 4.85873,-4.1205 v 5.49401 l 1.9435,5.49401 4.8587,6.86753 9.71745,2.74701 16.51965,-5.49402 12.63267,-12.36152 9.71747,-16.48204 0.97175,-8.24101 -1.94349,-4.1205 -3.88699,1.37349 -9.71745,12.36152 -10.6892,12.36152 -7.77397,5.49401 -6.80216,-1.37351 v -10.988 l 0.97172,-8.24103 v -15.1085 l -1.94347,-2.74702 h -7.77398 l -6.8022,4.12051 -1.9435,4.1205 -12.63269,16.48204 -10.68922,10.98802 -8.7457,2.74699 3.88699,-9.61451 9.71747,-20.60254 10.6892,-12.36152 8.7457,-8.24102 v 5.49402 h 1.9435 l 0.97175,-6.86753 h 2.91521 l 8.74572,8.24104 5.83047,-6.86753 0.97169,-5.49401 -4.85866,-10.98801 -5.83047,-2.747 H 691.1072 l -3.88698,2.747 -16.51969,13.73502 -16.51966,17.85555 -21.3784,10.988 -9.71747,1.3735 -3.88697,-12.3615 -2.91525,-12.36156 v -12.3615 l 2.91525,-5.494 4.85873,-1.37351 8.74571,8.24101 h 5.83047 l 2.91524,-5.49401 -0.97174,-5.494 -4.85874,-5.49403 -4.85873,-4.1205 h -13.60442 l -7.77397,4.1205 -5.83049,9.61454 -2.91522,12.36151 0.97175,9.61453 4.85872,17.85551 -0.97175,4.1205 -14.57618,13.73505 -11.66093,6.86749 -11.66096,2.74702 2.91523,-12.36151 8.74573,-27.47006 1.94347,-12.36153 -5.83046,-2.747 -6.80223,4.1205 -4.85873,10.98803 -9.71746,26.09655 -7.77396,6.8675 -15.54792,10.98802 -7.77396,1.37351 -2.91525,-2.74702 -1.94348,-8.241 1.94348,-16.48204 5.83049,-24.72303 9.71744,-37.08456 14.57618,-50.8196 13.60444,-46.69907 11.66096,-41.20509 v -8.24102 l -3.887,-2.74699 h -6.8022 l -1.94352,4.1205 -7.77395,21.97605 -10.6892,38.45807 -9.71745,32.96405 -5.83048,17.85554 -8.74571,30.21705 -8.74572,32.96405 -7.77395,35.71106 h -25.26539 l -6.8022,1.37351 -11.66095,4.12051 -32.06761,15.10852 -26.23714,15.10854 -32.0676,21.97604 -22.35013,15.10851 -9.71746,8.24103 -27.20888,23.34953 -25.2654,21.97604 -18.46315,13.73503 -16.51968,8.241 -34.01109,16.48204 -37.8981,16.48203 -26.23712,10.98803 -42.7568,13.73501 -34.011089,6.86751 H 53.642119 l -10.689201,-2.74699 -7.773964,-5.49402 -2.915236,-6.8675 v -13.73503 l 0.971745,-4.12052 4.858727,-12.3615 9.717455,-15.10855 14.576184,-17.85552 15.547928,-16.48202 10.689201,-10.98804 16.519682,-15.10851 20.40665,-16.48204 22.35014,-17.85552 43.72857,-30.21706 24.29363,-15.10854 47.61552,-27.47004 38.86982,-19.22905 18.46316,-6.8675 38.86985,-6.8675 22.35013,-5.49402 22.35014,-8.24102 4.85874,-4.1205 1.94349,-6.8675 -0.97175,-4.12051 -2.91524,-4.12052 -12.6327,-2.74702 -31.09584,6.86754 -42.75682,15.10851 -22.35012,4.1205 h -16.5197 l -32.06759,-4.1205 -27.20888,-5.49401 -22.35013,-6.8675 -23.32191,-10.98804 -11.66093,-9.6145 -7.77398,-9.61452 -5.83048,-10.98802 -3.88698,-17.85552 v -10.98804 l 2.91523,-19.22902 5.83049,-15.10855 11.66093,-23.34952 9.71745,-13.73503 7.77398,-9.61453 9.71746,-12.36152 10.68921,-12.36152 8.74571,-9.61451 15.54792,-16.48204 10.6892,-9.6145 23.32189,-20.60254 18.46317,-16.48203 34.98285,-26.09655 19.43491,-13.73502 28.1806,-16.482031 29.15236,-16.48203 6.80223,-2.747004 38.86983,-16.482028 24.29363,-8.241016 37.89808,-9.614518 18.46317,-2.747005 h 21.37841 v 1.373503 h 13.60443 l 8.74572,1.373502 13.60441,4.120508 20.40668,9.614516 19.43492,10.988019 6.8022,6.867514 2.91523,4.120506 4.85874,5.49401 7.77397,6.867513 5.83046,-1.373504 2.91523,-5.494009 -0.97174,-6.867511 -3.88697,-8.241015 -8.74572,-9.614518 -20.40665,-15.108527 -20.40666,-9.614517 -25.26538,-8.241014 -17.49142,-2.747006 z m -81.62663,475.231842 3.88699,1.37351 -18.46317,13.73502 -27.20888,16.48204 -28.18061,16.48203 -31.09586,17.85553 -7.77396,2.74701 2.91524,-4.1205 15.54793,-10.98805 16.51967,-12.36151 32.06759,-20.60254 20.40666,-10.988 17.49142,-8.24103 z m 155.4793,0 2.91522,2.747 1.94352,9.61454 v 10.988 l -3.887,6.86752 -7.77396,4.12052 -3.88698,1.37349 h -16.51969 l -1.94347,-1.37349 0.97173,-6.86754 14.57619,-15.1085 z" />
  <path
     style="fill:#e9afaf;stroke-width:2.78849"
     d="m 578.28979,405.78965 c -1.49848,-9.47341 2.27608,-17.20093 6.89012,-24.89546 4.77918,-7.96992 -0.15849,2.04724 4.59343,-1.91503 4.752,-3.96228 -7.26165,0.15488 2.29672,-3.83007 6.75878,-2.8178 -3.02383,4.43633 4.59343,-1.91505"
     id="path8" />
</svg>
