<?xml version="1.0" encoding="UTF-8"?>
<svg version="1.1" viewBox="0 0 2000 2000" width="500" height="500" xmlns="http://www.w3.org/2000/svg">
<path transform="translate(0)" d="m0 0h2e3v2e3h-2e3z" fill="#FEFEFD"/>
<path transform="translate(822,601)" d="m0 0h26l11 3 12 6 14 12 6 8 9-2 13-3 8-1h14l15 3 14 7 10 9 7 10 7 14 5 18 1 8 1 209v110l4 7-1 4-6 5-9-6h-3l-1 5h-2v-4l-9 6-11 9-10 15-4 7 9-2 11-8 13-12 2-3 7-3h8l2 2v11l-1 6v8l7 1 8-4 11-9 10-9 4-1 2 3-1 6-10 12-13 9-17 4-10-2-5-5-2-4v-4l-5 3-12 9-10 4-5 1h-9l-9-3-3-7 2-9 4-8-15 8-2 4 4 15 1 8-3 8-8 6-14 5-15 3h-14l-8-3-5-6v-8l6-9 4-3h-2l-15 1-8-5-2-7-9 6-10 5-12 3h-8l-5-2-5-6-2-5-1-7h-3l-1 3-28 13-29 14-28 13-44 19-33 14-37 15-20 8-16 9-18 14-16 12-16 13-13 12-8 7-10 9-7 7-5 3h-9l-1-1v-6l9-10 13-12 12-11 11-9 15-12 5-3v-2l-16 4-43 13-36 9-36 7-23 3-15 1h-18l-16-2-12-4-8-6-5-8v-13l4-10 6-8 5-6 8-7 13-12 18-13 29-19 17-10 24-13 27-14 34-16 23-10 59-23 3-2-47-6-28-5-26-7-15-6-11-6-10-8-8-11-4-8-1-4v-19l4-13 9-17 8-10 9-10 11-11 11-9 15-12 19-14 33-22 20-12 19-11 33-17 24-11 27-11 33-12h2v-7l4-11 8-14 9-11 7-7 14-8 10-4 17-4 13-1v-4l-3-1 1-10 6-17 9-15 10-11 10-7 16-8z" fill="#FEFEFD"/>
<path transform="translate(672,758)" d="m0 0h3l2 10 1 7-8 7-9 10-11 18-4 13-1 12v15l3 14 8 16 7 11 6 6-1 6-7 16-3 11v31l5 17 3 6v3l-8 2-23 4-39 10-23 3h-17l-33-3-28-4-23-5-24-8-12-7-10-9-6-9-3-11v-8l4-16 8-14 11-14 15-15 11-9 9-8 13-10 18-13 21-13 22-14 21-12 22-11 19-10 28-12 28-11z" fill="#FEFEFD"/>
<path transform="translate(821,718)" d="m0 0h13l18 2 26 6 21 7 21 11 9 7 4 6 1 5-3 4-6 1-8-5-5-4-3-3-7-5-20-8-21-7-14-3-9-1h-14v-1h-22l-19 2-39 7-25 6-40 12-7 2-30 12-29 12-20 10-36 19-19 12-24 15-11 7-16 12-9 7-11 9-10 9-8 7-10 10-12 17-6 11-3 14v8l4 13 6 8 8 7 12 7 24 8 23 5 28 4 33 3h17l23-3 44-11 32-5 13 2 3 3 1 3-2 5-5 3-23 6-23 4-40 5-19 5-40 14-49 20-25 11-45 22-23 13-21 12-17 11-11 8-16 12-15 13-10 11-5 9-1 3v10l3 5 8 4 11 2h22l35-5 44-10 27-8 39-12 35-12 17-6 19-10 26-16 28-17 10-6 23-11 33-16 27-11 33-11 12-3 7-1h26l8-26 9-24 9-22 6-13 10-24 11-28 8-16 2-3h7l4 2v6l-12 30-14 34-15 37-10 27-6 18-2 12 2 6 3 2 8-1 16-8 8-5 10-19 5-8 7-3 6 2-2 9-9 20-3 9 12-2 12-5 15-10 1-3-5-13-1-7 3-9 6-7 8-3h14l5 3 5 4 1 4-3 4h-6l-9-6-5 1-3 4v9l3 9 4 9 10-1 22-8 17-13 17-10 4-2h11l6 2 5 8-1 4-6 5-9-6h-3l-1 5h-2v-4l-9 6-11 9-10 15-4 7 9-2 11-8 13-12 2-3 7-3h8l2 2v11l-1 6v8l7 1 8-4 11-9 10-9 4-1 2 3-1 6-10 12-13 9-17 4-10-2-5-5-2-4v-4l-5 3-12 9-10 4-5 1h-9l-9-3-3-7 2-9 4-8-15 8-2 4 4 15 1 8-3 8-8 6-14 5-15 3h-14l-8-3-5-6v-8l6-9 4-3h-2l-15 1-8-5-2-7-9 6-10 5-12 3h-8l-5-2-5-6-2-5-1-7h-3l-1 3-28 13-29 14-28 13-44 19-33 14-37 15-20 8-16 9-18 14-16 12-16 13-13 12-8 7-10 9-7 7-5 3h-9l-1-1v-6l9-10 13-12 12-11 11-9 15-12 5-3v-2l-16 4-43 13-36 9-36 7-23 3-15 1h-18l-16-2-12-4-8-6-5-8v-13l4-10 6-8 5-6 8-7 13-12 18-13 29-19 17-10 24-13 27-14 34-16 23-10 59-23 3-2-47-6-28-5-26-7-15-6-11-6-10-8-8-11-4-8-1-4v-19l4-13 9-17 8-10 9-10 11-11 11-9 15-12 19-14 33-22 20-12 19-11 33-17 24-11 27-11 35-13 32-9 34-8 36-6z" fill="#040404"/>
<path transform="translate(679 1e3)" d="m0 0h6l1 5 11 5 15 5 24 4-1 11-3 15 1 6-9 4-20 7-25 10-23 11-16 8-17 8-22 13-21 13-25 15-15 8-28 10-49 16-34 10-37 9-20 4-29 4h-22l-14-3-7-5-2-4v-10l4-9 9-11 8-8 11-9 13-10 14-10 19-12 21-12 27-15 22-11 28-13 31-13 35-14 40-14 16-4 46-6 26-5z" fill="#FDFDFC"/>
<path transform="translate(929,1046)" d="m0 0h2l-2 6-2 5-1 7 2 6 9 2h9l13-4 10-7 6-5h3l3 8 4 4 10 3v113l-2 11-4 11-7 11-11 12-14 9-14 5h-18l-16-4-10-5-10-9-7-11-7-13-6-2h-15l-15-5-13-7-7-5-8-10-10-21-8-6-19-12-12-9-15-15-8-12-4-12v-3l-3-1 23-11 24-11 3-3 2 1 2 10 4 6 2 2 4 1h8l14-4 13-7 4-2 4 8 6 3 15-1 4-1v2l-7 5-4 7v8l5 6 7 2h14l18-4 13-5 5-4 3-8-2-12-3-12 4-5z" fill="#B1B1B0"/>
<path transform="translate(802,729)" d="m0 0h23l1 3-7 8-13 21-10 16-9 12-11 11-10 5-17 4h-17l-15-3-14-5-11-7-6-4-4 2-6 7-6 10-4 10-2 11v9l4 15 4 10 7 10 7 6 12 5 5 1h22l-2-5-1-7v-9l3-12 5-10 7-9 9-10 9-6 2-1h13l3 4v5l-7 7-14 8-4 6-4 10-1 5v15l4 12 6 9 8 7 8 5 7 2h12l14-4h5l4 5-1 5-8 8-8 4-8 2-17 1-12-4-14-8-8-8-6-7h-6l-2 1-12 1-7 1-12-2-4-1-6 12-3 12v18l5 16 6 11 12 13 14 7 19 4h17l4-5h2l2-4 10-9 14-9 14-6 15-4h5l-5 13-11 27-8 21-7 24-4 1h-23l-25 5-2-3 2-14 3-15-12-1-16-3-18-7-5-3v-5l-3-1 5-3 1-5-1-4-15-2h-6l-6-15-3-11v-31l4-14 7-16-1-4-8-9-10-18-4-12-1-7v-15l2-16 4-11 10-16 12-13 4-4h2l-3-10v-7l11-4 29-9 25-6 37-7 13-2z" fill="#B0B0AF"/>
<path transform="translate(822,601)" d="m0 0h26l11 3 12 6 14 12 6 8 9-2 13-3 8-1h14l15 3 14 7 10 9 7 10 7 14 5 18 1 8 1 209v98l-1 11-6-1h-11l-18 10-19 14-11 5-16 5h-6l-3-5-4-9-1-5v-9l4-5 5-1 9 6h6l2-5v-2l-2-1 8-2 12-5 16-8 9-7 4-5 1-2v-274l-2-19-4-13-7-12-11-10-9-5-11-2h-9l-15 2-13 5-6 5-10 18-6 4-7-1-2-3v-7l4-10 7-10-1-6-5-7-10-7-8-4-7-2h-26l-13 4-9 5-8 7-6 10-4 10-2 9v18l5 23 2 11v3l-17 3-31 6-40 10-13 4h-4l1-10 8-16 7-10 9-10 9-7 15-7 20-5 13-1v-4l-3-1 1-10 6-17 9-15 10-11 10-7 16-8z" fill="#B1B1B0"/>
<path transform="translate(1520,684)" d="m0 0h70l41 2 39 4 28 4 28 6 23 7 21 9 15 9 8 7 5 9v6l-4 5h-5l-6-7-6-9-10-7-16-8-23-9-24-7-23-5-33-4-33-2h-70l-48 2-48 4-42 5-41 6-56 11-42 11-31 9-19 7-20 8-18 8-23 13-10 6-11 7-16 13-11 11-13 17-8 16-4 15v20l3 14 8 18 10 16 11 14 10 11v2h2l7 8 17 17 8 7 16 15 11 10 8 7 10 9 13 12 8 7 14 12 12 11 8 8 8 7 15 15 8 7 13 13 18 22 5 11 1 8-3 7-8 7-10 4-16 3h-37l-26-3-26-5-25-7-15-6-11-6-8-9-2-6 1-9 6-9 9-8 14-9 16-7 14-3h23l17 4 8 4 4 4-1 5-2 1-24-8-11-1-16 2-19 8-9 7-9 9-2 5v6l6 7 12 6 24 7 33 6 23 3 10 1h25l10-3 4-2 3-6-1-6-5-9-11-13-10-10-7-8-13-13-8-7-15-14-8-7-16-15-10-9-8-7-15-14-10-8-9-9-8-7-7-7-5-4-5-5-16-15-11-11-7-8-10-12-10-13-6-10-7-15-5-17-2-13v-11l3-14 6-15 7-11 9-12 14-15 14-12 22-15 18-10 17-9 24-11 24-9 41-13 26-7 60-12 38-6 41-5 47-4z" fill="#040404"/>
<path transform="translate(929,1046)" d="m0 0h2l-2 6-2 5-1 7 2 6 9 2h9l13-4 10-7 6-5h3l-1 4h-2v21l-1 56v59l-3 10-6 8-7 6-10 4h-18l-10-3-10-6-8-9-5-12-2-11v-11l3-15-2-8-4-1-5 3-6 8-5 10 3 7v3h-16l-12-3-11-6-9-9-7-12-5-13-1-4v-14l5-12 8-10 6-5h5l16 22 12 9 15 7 14 3h17l8-5 3-7v-5l-12-2-17-2-12-3-7-4v-2l18-4 13-5 5-4 3-8-2-12-3-12 4-5z" fill="#FDFDFC"/>
<path transform="translate(1211,751)" d="m0 0 3 1-8 11-3 5-5 3-7 10-16 32-7 11-3 6v3l6-2 12-5 10-8 12-5 3-1h19l-1 5-6 8-8 8-9 6-15 5-9 2-9 1h-14l-4 4-4 16-1 16 2 1 4-10 7-10 10-8 9-2-3 24-4 10-7 9-5 4-6 3-8-1-2 18v21l4-7 8-11 8-8 15-10 3-3h2v-2l4-2 2 5-3 12-7 13-10 11-11 8-4 2h-10l-3 5-4 14-7-6-3-3v-2h-2l-9-11-8-9-12-18-8-16-4-10-2-11v-20l4-15 8-16 11-14 9-10 8-8 13-10 7-5 7-4 23-13 16-8 16-7z" fill="#E4E3E1"/>
<path transform="translate(1091,959)" d="m0 0 6 1 13 14 5 15 2 11v28h2l4-19 4-26h3l6 4 8 7 18 18 8 7 11 10 4 4-5 2-6 5-12 6-16 4h-26l-5-2h-3l-5 11-5 12-3 7-10 24-3 7h-2l-1 5-8 16-6 10-4 9-3 9 4-3h2l2-4 7-6 8-5 7-4 10-7 8-5-5 2h-3l-1-4 3-13 4-12 6-10 9-10 7-6 9-5 6-1 2 1v7l-8 16-9 13-12 13-3 5 9-3 21-9 12-6 7-6h2v-2l14-9 8-3 19-2h7v2l2 1-3 6-9 7 14 1v1l-17 1-17 4-17 8h-4l-6 1-1-4-19 6-10 6-8 4-12 8-12 7-12 5v2l2 1 15 1 11 4 8 4 14 12 4 3-1 3h-4v2l-4 4h-21l-16-7-11-6-12-5-3-1-8 7-4 5h-2l-2 4-10 14-10 17-9 11-6 3-4-2 2-6 5-7 2-5v-7l-10-12-5-13 1-13 3-6 3-4 3-5h4l8 13 8 12 1 3v9l-1 4h2l2-6 12-19 3-3 6-12 4-10 2-11v-8l-4-5-14-8-15-6-10-9-10-14-1-3-3-2 7-3 11-8 6 1 12 8 10 9 10 15 6 12 1 1 2-8h1l1 18 4-4 4-13 1-1 1-7h2l1-7 8-15 4-10 3-6 1-5v-13l-9-12-4-8-3-25-3-12 1-6 3-5z" fill="#B1B1B0"/>
<path transform="translate(1429,891)" d="m0 0 7 1 2 6-11 28-15 36-15 38-13 35-5 19 1 8 4 3 7-1 12-5 12-7 6-10 5-10 15-15 10-5 9-2 26-1 8-13 14-25 13-24 13-23 10-18 4-6 4-2 9 1 1 2-4 12-16 34-14 32-19 46-8 24v9l8-3 13-10 8-13 5-8 5-3 6 1 1 5-5 13-7 16 1 5 7-1 13-5 14-9 14-11h3l-1 5-4 6-9 10-11 9-14 7-8 2h-11l-7-3-3-7v-2l-6 4-8 2h-12l-5-3-3-4-1-7 3-15-1-3-13 14-7 8-12 10-11 6-8 2h-7l-8-3-3-6v-5l-21 12-12 3h-8l-7-3-5-10v-16l6-22 11-29 19-44 24-57z" fill="#040404"/>
<path transform="translate(1291,726)" d="m0 0 5 1 3 4 2 12 1 13 9 1 16-9 16-4h9l10 2 8 5 1 1-1 7-7 9-11 11-7 4-6-1-5-1 3 10v9l-4 8-7 9-7 3h-7l-8-3-7-8-2-4-1-16 3-16-7 3-9 5-11 7-8 2h-9l-6-3-6-6-1-9 4-10 11-12 5-2 9-1-1-2-7-1-2-2v-6l-2-1z" fill="#B1B1B0"/>
<path transform="translate(1190,485)" d="m0 0h3v8l-3 16-5 12-8 15-6 9-3 8-5 7-8 4-6 9-2-4-4-1-5 8-10 10-11 5-10-1-11-6-8-10 4-2 5-3-1-3-4-3 2-9 5-5 10-6 5-2-5-1h-2l-11-20-4-12 1-5 5-5 6-3 10 2 19 9 16 11 5-5 9-8 18-13z" fill="#B1B1B0"/>
<path transform="translate(844,932)" d="m0 0 1 4 1 3 2 18 6 16 6 11 4 5v2l4 1 2-5 6-5 5 1 2 2-1 7-3 8 7 3 9 1-5 5-4 7-1 7 4 14 2 5-5 5-10 7-11 5-7 2h-8l1-6 9-21 3-8v-3l-5-1-7 2-2 5-7 12-5 10-10 7-15 7-8 1-5-4-1-7 4-17 12-33 15-37 11-27z" fill="#B1B1B0"/>
<path transform="translate(1139,788)" d="m0 0h4l-2 7h-2v53l-1 3v9l1 5v13l-3 6-1 6v26h2l1 9-1 3-1 23-1 6h-3l-6-14-3-9-6-12-14-21-1-3 3-14 2-11v-8l-4-13-7-15-1-5 11-14 9-10 8-8 13-10z" fill="#FDFDFC"/>
<path transform="translate(790,730)" d="m0 0h17l-2 4-8 11-12 22-9 13-8 6-9 2-10 1h-12l-18-4-11-6-4-3v-2h-2l-6-11-1-12 35-10 41-8z" fill="#FCFCFB"/>
<path transform="translate(1260,833)" d="m0 0 5 1-2 24-4 13-7 10-7 9-4 5-10 7-8 10-4 10 17-6 7-2 26-2h6l1 4-4 5-8 7-5 5-10 3-8 1h-28l-4-1-6 8-10 11h-2v4l23 3 21 6 10 2v4l-7 7-8 4-9 2h-10l-16-4-6-4-10-4-7-1-8 5-2-1 12-11 11-9 6-5 12-16 8-12 8-11 4-8 1-6-1-2v-7l7-21 6-11 12-14 9-10z" fill="#B1B1B0"/>
<path transform="translate(1145,798)" d="m0 0h2l1 30 1 15 4-2 9-16h2l-3 10-1 4 14-8 13-8 7-6 14-5h19l-1 5-6 8-8 8-9 6-15 5-9 2-9 1h-14l-4 4-4 16-1 16 2 1 4-10 7-10 10-8 9-2-3 24-4 10-7 9-5 4-6 3-8-1-2 18v21l4-7 8-11 8-8 15-10 3-3h2v-2l4-2 2 5-3 12-7 13-10 11-11 8-4 2h-10l-3 5-4 14-4-4v-3l2-1 2-23 2-15v-13l-1-12 1-12 2-5v-15l-2-6v-10l2-5h2z" fill="#B1B1B0"/>
<path transform="translate(1289,1010)" d="m0 0h7l3 4-3 9-1 4-2 26-1 3v9l2 3v9l-8 13-7 5-4 1-13-13-8-7-15-15v-3-13l1-14 4-8 9-9 6-3 5 1 1 13 5-1 8-7z" fill="#B1B1B0"/>
<path transform="translate(1346,1017)" d="m0 0 11 1 6 4 4 7-2 13-4 8-8 10-7 6-10 5-8 2h-10l-12-3-5-3-4-9v-7l4-10 12-16 8-5 8-1h7z" fill="#040404"/>
<path transform="translate(825,979)" d="m0 0 5 1 10 15 7 9 6 7 7 6-1 4-6 3h-2l-2 5-7 12-5 10-10 7-15 7-8 1-5-4-1-7 4-17 12-33 10-25z" fill="#FCFCFB"/>
<path transform="translate(1022,772)" d="m0 0 5 5 14 20 9 14 10 26 4 14 2 8-1 16-1-2-7-2-20-16-6-7-8-16-5-13-2-16-3-15-1-11h5z" fill="#B1B1B0"/>
<path transform="translate(1143,1065)" d="m0 0 4 1v7l-8 16-9 13-12 13-3 5 9-3 21-9 12-6 7-6h2v-2l14-9 8-3 19-2h7v2l2 1-3 6-9 7 14 1v1l-17 1-17 4-17 8h-4l-6 1-1-4-19 6-10 6-8 4-12 8-12 7-7 2 6-7 15-9-4 1h-3l-1-4 3-13 4-12 6-10 9-10 7-6 9-5z" fill="#B1B1B0"/>
<path transform="translate(782,1056)" d="m0 0 2 1 2 10 4 6 2 2 4 1h8l14-4 13-7 4-2 2 5-1 4-5 2-2 4-8 7-7 7-9 14-2 6-1 10-5-1-16-12-12-11-7-9-8-15-1-3 26-12z" fill="#FBFBFA"/>
<path transform="translate(805,981)" d="m0 0h2l-1 6-12 31-7 22-3 8h-33l-1-2 7-26 7-13 9-10 10-7 13-6z" fill="#FBFBFA"/>
<path transform="translate(897,857)" d="m0 0h23l13 3 7 5v7l-7 6-5 3-8-1-11-3h-13l-14 3-16 7-7 6-5-1h-7l-8 16-6 15-2-2v-4l-2 5-2-1 3-10 6-14 6-8 10-10 13-10 16-8z" fill="#B1B1B0"/>
<path transform="translate(1065,971)" d="m0 0h2l10 22 5 15 1 6v11l-4 22-3 25-3-1-2-9-4-5-7-20-6-13-2-9v-17l2-10 5-10z" fill="#B1B1B0"/>
<path transform="translate(1143,638)" d="m0 0 4 2 3 10v23l-4 17-5 12-3 6v20l-2-4v-4l-8 2-6-9-3-11-1-7v-9l3-16 5-14 12-15z" fill="#B1B1B0"/>
<path transform="translate(1074,711)" d="m0 0 6 1 26 15 12 8 13 12 7 8 6 3-1-7-3-7-1-6h3l4 13 1 14-5 1-8-1-3-8-6-2-3 3-13-3-21-9-6-4-10-10-5-9 1-5z" fill="#B1B1B0"/>
<path transform="translate(744,699)" d="m0 0 7 1 3 4 5 15 2 4-3 2-26 5-32 8h-7l6-15 7-10 7-6 12-5z" fill="#FCFCFB"/>
<path transform="translate(1211,751)" d="m0 0 3 1-8 11-3 5-5 3-7 10-15 30-5 5-5 3-1-4-2-14-6-18v-6l29-16 19-8z" fill="#E6E5E3"/>
<path transform="translate(1187,638)" d="m0 0 4 1 5 5 13 12 5 6 4 11 1 4v13l-2 4-7 1v2l-5-1-7-7-8-7-8-14-2-10 1-8 4-7z" fill="#B1B1B0"/>
<path transform="translate(1094,834)" d="m0 0 4 4 8 19 2 8v8l-5 25 4 8 12 18 5 10 3 9 7 17h-3l-6-13-6-16-4-8-12-17-5-4-6 2-1-3-2-1-2-6h-2l-2-11v-20l4-15z" fill="#B1B1B0"/>
<path transform="translate(1058,734)" d="m0 0h2l11 17 7 12 1 4v12l-4 15-4 3-9-2-7-8-5-11-2-8v-17l4-10z" fill="#B1B1B0"/>
<path transform="translate(1321,645)" d="m0 0 3 1 4 11 6 17v14l-4 9-6 9v1l-9 1-5-2-3-7-2-15v-14l4-11 8-10z" fill="#B1B1B0"/>
<path transform="translate(1021,674)" d="m0 0 4 1 7 11 8 13 1 3v15l-3 10-5 7-5-1-5-5-7-10-4-10-1-5v-18l2-5 6-5z" fill="#B1B1B0"/>
<path transform="translate(1187,596)" d="m0 0h13l12 5 15 7v3l-8 8-10 3-8 1h-10l-12-2-8-4-6-6 1-4 9-7 7-3z" fill="#B1B1B0"/>
<path transform="translate(1027,1314)" d="m0 0 10 1 8 6 3 5 1 10-3 7-4 5-9 4h-8l-8-3-6-7-2-6 1-9 3-6 6-5z" fill="#040404"/>
<path transform="translate(1126,1314)" d="m0 0 10 1 7 5 4 8v11l-4 6-6 5-7 2-10-1-7-4-5-9v-10l5-9 7-4z" fill="#040404"/>
<path transform="translate(1016,865)" d="m0 0 4 4 12 19 3 6v10l-5 12-5 5-7-1-7-8-4-10-2-9v-14l4-6z" fill="#B1B1B0"/>
<path transform="translate(1108,613)" d="m0 0h14l-1 4-12 12-7 8-11 10-7 2h-15l-7-2 2-5 11-12 5-5 8-6 9-4z" fill="#B1B1B0"/>
<path transform="translate(1360,877)" d="m0 0 3 3 5 14v11l-4 12-7 8-14 14-4-1-2-2v-11l4-14 10-22 6-9z" fill="#B1B1B0"/>
<path transform="translate(1464,1018)" d="m0 0 8 1 4 3-1 5-7 9-10 11-7 8-10 8-6 3h-3l-1-2v-9l3-10 7-12 8-8z" fill="#F9F9F8"/>
<path transform="translate(1033,964)" d="m0 0h6l-1 5-1 2-3 20-4 8-10 10-10 6-4-1-3-5 1-10 3-10 7-11 10-9 6-4z" fill="#B1B1B0"/>
<path transform="translate(875,739)" d="m0 0 10 3 17 7 5 5 2 14v12l-3 6-9 5h-5l-4-5-1-16-4-16-5-8z" fill="#B1B1B0"/>
<path transform="translate(1338,1027)" d="m0 0h9l4 2 1 5-3 8-6 9-8 7-10 5-8 1-4-3-1-6 4-11 8-10 10-6z" fill="#F9F9F8"/>
<path transform="translate(848,1314)" d="m0 0 13 1 6 4 4 6-1 9-5 5-5 2h-12v10l-2 1h-7v-37z" fill="#040404"/>
<path transform="translate(1135,989)" d="m0 0 4 1 5 4 18 18 6 5v3l-16 2-20 7-8 4-4-1 9-11 10-13 5-7-1-1-10 12h-2l1-11z" fill="#FAF9F8"/>
<path transform="translate(1299,937)" d="m0 0h10l-2 4-6 9-9 17-8 8-8 4h-7l-4-3 2-5 8-13 10-11 9-9z" fill="#B1B1B0"/>
<path transform="translate(1230,1314)" d="m0 0 6 1 4 6 12 27v4h-6l-4-4-2-3-17-1-2 6-2 2-7-1 2-6 11-25z" fill="#040404"/>
<path transform="translate(970,1007)" d="m0 0 5 1v3l-16 9-19 14-11 5-16 5h-6l-3-5-3-7v-4l13 1 18-4 14-6 19-10z" fill="#F9F9F8"/>
<path transform="translate(838,710)" d="m0 0h21l15 4 12 6 12 10v3l-10-3-17-5-26-5-11-1h-21v-1h7l1-3 8-3z" fill="#AEAEAD"/>
<path transform="translate(1175,767)" d="m0 0 4 1-1 14-3 17v4h2l-1 4-6 10-5 2-2-18-6-18v-6z" fill="#B1B1B0"/>
<path transform="translate(1323,842)" d="m0 0h4v6l-4 8-3 8-6 8-7 6-4 3h-7l-2-6 1-9 6-9 13-12z" fill="#B1B1B0"/>
<path transform="translate(980,1021)" d="m0 0 5 1 8 5 2-1-1 7h-9l-7 3-7 8-14 12-7 4-5 1-2-1 2-5 10-16 10-9 10-7h2v4h2v-5z" fill="#F7F7F6"/>
<path transform="translate(1179,1314)" d="m0 0h7l8 3 2 2v5l-8-1-2-1h-7l-6 4-1 2v10l4 5 2 1h8l3-2 2-10h5l1 1v12l-5 6-3 1h-11l-9-4-5-6-2-7 1-8 5-8 7-4z" fill="#040404"/>
<path transform="translate(1056,901)" d="m0 0h9l5 2 2-1 3 10 9 17 3 4-1 2-13-2-11-7-8-8-2-4 1-6z" fill="#B1B1B0"/>
<path transform="translate(898,1314)" d="m0 0h9l8 4-3 5-12-2-4 2 1 5 12 3 6 5 1 2v6l-5 6-6 2h-9l-9-3-1-5 5-1 4 1h10l2-1v-3l-16-6-4-5v-7l5-6z" fill="#040404"/>
<path transform="translate(1155,778)" d="m0 0 3 1 1 7 4 20-1 10-4 10-5 10-3 1-2-41-1-8-1-4z" fill="#FDFDFC"/>
<path transform="translate(737,1064)" d="m0 0 4 1-19 10-28 12-29 12-32 13-8 2 3-3 16-8 17-9 33-15 21-8 18-6z" fill="#EEEDEC"/>
<path transform="translate(977,1314)" d="m0 0 10 1 5 3 1 7-6-1-4-2-9 1-4 4-1 2v8l4 6 3 1h7l9-2 2 3-4 5-7 2h-7l-8-3-5-5-3-6v-10l4-7 6-5z" fill="#040404"/>
<path transform="translate(883,1022)" d="m0 0 2 1 4 14 2 5-5 5-10 7-11 5h-5l8-21 7-10z" fill="#F8F8F7"/>
<path transform="translate(897,1064)" d="m0 0 3 2 2 7v8l-4 5-8 3-4 1h-17l-2-1 1-5 15-11z" fill="#F8F8F7"/>
<path transform="translate(1104,1031)" d="m0 0h1v13l-3 9-4 10v2l-3 3-7 14-1 5h-2v7l-3 8-4 9-3 1-1-6-1-8-1 5-3-2 1-2v-10l-3-16-2-17v-5l2 3 2 4 2 2 3 11 2 1 1-15h1v14l-2 34h2l2-9 11-27 7-15 5-13z" fill="#E6E5E3"/>
<path transform="translate(1126,1321)" d="m0 0 7 1 5 4 1 2v10l-4 5-5 2-9-1-4-5-1-2v-8l3-5z" fill="#F9F9F8"/>
<path transform="translate(1269,700)" d="m0 0h8l10 6 3 8-29 8-3-1v-8l7-9z" fill="#B3B3B1"/>
<path transform="translate(1026,1321)" d="m0 0 8 1 6 5 1 7-3 7-6 4h-7l-5-3-3-9 3-9z" fill="#F9F9F7"/>
<path transform="translate(1070,1314)" d="m0 0 6 2v28l19 1-1 6-12 1h-15v-37z" fill="#040404"/>
<path transform="translate(1086,892)" d="m0 0 2 2 1 6 3 1v3l4-3 5 2 6 7 12 18 6 15-1 3v-2h-4v-2l-2-1h2l-3-7-17-17 1 6-3-1-8-16-4-9z" fill="#FAFAF9"/>
<path transform="translate(1250,910)" d="m0 0h28l1 4-7 9-11 11-7 3-7 1-24 1-13 2-5 3-7 8-3 3-2-1 12-13 4-6 4 1h28l11-2 8-3 10-10h2l2-4 1-4-24 1-10 2-14 4-5 2h-3l1-6 3-5 1 2-1 4 6-1 16-5z" fill="#E6E5E3"/>
<path transform="translate(1211,751)" d="m0 0 3 1-8 11-5 4-6 4-7 12-3 5-2-1 2-12v-9l-3-3 23-10z" fill="#B1B1B0"/>
<path transform="translate(876,982)" d="m0 0 5 1 2 2-1 7-6 10-7 6h-5l-1-1v-7l5-10 6-7z" fill="#040404"/>
<path transform="translate(937,1314)" d="m0 0 5 1 1 36-1 1h-7l-2-5 1-32z" fill="#040404"/>
<path transform="translate(1559,982)" d="m0 0h5l3 3-1 7-6 10-5 5h-8l-1-4 7-14z" fill="#040404"/>
<path transform="translate(1099,916)" d="m0 0 4 2 7 8 9 9 1 9h4l4 7v4l-5-1-10-11-13-18z" fill="#F4F4F3"/>
<path transform="translate(1124,717)" d="m0 0 4 4 8-1 1 6 1-7h1l3 16-1 3-1 1 5 15v5l-8-4-14-15h3l14 14 2 1-3-9-4-5-7-12-4-10z" fill="#E6E5E3"/>
<path transform="translate(1168,739)" d="m0 0 4 1 3 8v4l3 1-19 9-2-3-1-9 1-2h2l1-3 6-5z" fill="#B3B3B2"/>
<path transform="translate(1322,839)" d="m0 0 5 1 2 2-1 7-4 8-2 7-7 9-10 9-4 2h-6l-4-5v-8l4-10 8-9 14-11zm1 3-10 4-13 12-5 8-1 9 2 6h7l7-5 5-5 6-8 4-11 2-4v-6z" fill="#E6E5E3"/>
<path transform="translate(1070,729)" d="m0 0 14 14 17 8 12 4 9 2 3-3 6 2 2 2 1 7h12v-13h1l2 16-10 2h-4l-5-10-4-3-2 3-7-1-19-7-11-5-10-6-6-7z" fill="#E6E5E3"/>
<path transform="translate(1221,718)" d="m0 0h2l-1 13-4 3-12 4-5 1-2-2 4-1 2-4 12-11z" fill="#B1B1B0"/>
<path transform="translate(1263,829)" d="m0 0 4 1v12l-3 18-3 10-2 1 2-9 2-16 1-12-6 1-7 7-9 11-7 9-6 13-1-4 9-17 8-8 7-8 5-6z" fill="#E6E5E3"/>
<path transform="translate(829,712)" d="m0 0 14 2v1l-9 1 12 1 32 7 11 4 8 1 1 4-10-3-17-5-26-5-11-1h-21v-1h7l1-3z" fill="#D8D7D5"/>
<path transform="translate(1227,875)" d="m0 0 1 4-4 12v7l1 4-4 10-8 12-7 10-9 12-8 10-10 8-3 3-2-1 7-7h2v-2l8-7 8-10 9-14 1-2h2l2-4 6-11 2-7 1-12z" fill="#E6E5E3"/>
<path transform="translate(1050,1103)" d="m0 0 6 2 7 5 3 4v8l-3 14-5 12-6 9-7 10-1-2 8-14 7-16 3-9 1-11-5-6-8-5z" fill="#E6E5E3"/>
<path transform="translate(980,1021)" d="m0 0 5 1 8 5 2-1-1 7h-9l-9 3-1-9v-4h2v4h2v-5z" fill="#B3B3B2"/>
<path transform="translate(1293,1007)" d="m0 0 7 2 1 2-1 9-3 9-1 19-3 9-1 8h-1v-9l2-13 1-16 4-11-2-5h-7l-11 7-4 2 5-6 10-6z" fill="#E6E5E3"/>
<path transform="translate(850,1321)" d="m0 0 9 1 3 3v6l-4 3-9 1-2-2 1-11z" fill="#F4F4F3"/>
<path transform="translate(1221,823)" d="m0 0v3l-9 9-11 7-10 4-9 2-27 2-4 5 1-6 4-3h14l13-2 15-4 8-4 9-7z" fill="#E6E5E3"/>
<path transform="translate(1135,989)" d="m0 0 4 1 5 4 3 5-2 2-1-2-9 10-2 3h-2l1-11z" fill="#F6F6F5"/>
<path transform="translate(1294,936)" d="m0 0h16l-1 2h-10l-6 2-5 5h-2l-2 4-9 10-7 12-2 5 3 2h7l5-1-4 3-2 1-11-1-3-3 4-7 7-11 9-10 7-8z" fill="#E6E5E3"/>
<path transform="translate(1180,764)" d="m0 0 5 1 1 1v9h-2l-1 10-3 5h-2l1-22h-2v-2z" fill="#F9F9F8"/>
<path transform="translate(1099,916)" d="m0 0 4 2 7 8 9 9 1 6-4-2-7-6-5-4-4-4z" fill="#B1B1B0"/>
<path transform="translate(1070,899)" d="m0 0h1v5l-6-2-9-1-1 5-2 4 1 6 7 8 10 7 9 2 8 2 1 2-15-2-10-5-8-7-6-9 1-7 4-7h12l3 1z" fill="#E5E4E2"/>
<path transform="translate(1160,900)" d="m0 0 2 1-6 4-9 3-2 27 4-2-2 6-4 4v-22l1-12 2-6h8z" fill="#E6E5E3"/>
<path transform="translate(1126,979)" d="m0 0 4 3-1 3-1-1-2 13-5 26-2 5h-2v-27h1l1 16 3-9 3-24z" fill="#E2E1DF"/>
<path transform="translate(1083,876)" d="m0 0 5 1 8 10v5l1 2-5-2-7-6-2-3z" fill="#E4E3E1"/>
<path transform="translate(1122,1158)" d="m0 0 4 2 11 9 2 4-7 5h-2l-1 3h-24l-18-8-4-4 6 2 15 7 3 1h21l2-3h2v-2l4-1-1-3-10-8z" fill="#E6E5E3"/>
<path transform="translate(728,844)" d="m0 0 1 2-5 13-1 6v9l1 7 1 5-4 1h-18l-13-4-2-2 5 1 12 3h15l2-1-1-5v-17l4-13z" fill="#E6E5E3"/>
<path transform="translate(1091,957)" d="m0 0 6 1 9 9 4 5-1 2-8-8-4-5-6-2-2 7-3 4 2 16-2-3-4-14 1-4 4-2z" fill="#E6E5E3"/>
<path transform="translate(1260,1009)" d="m0 0 5 1 2 14 4-1-3 3-3-1-2-13-6 1-6 4-8 9-2 5-1 14h-1v-15l5-10 9-8z" fill="#E6E5E3"/>
<path transform="translate(1172,973)" d="m0 0 11 2 6 3 8 5 14 3h10l9-1-2 2-9 2-11-1-14-4-14-7-9-1-2-1z" fill="#E6E5E3"/>
<path transform="translate(1150,855)" d="m0 0h1l-1 20 5-6 1 2-4 8-3 7-3-3 1-16z" fill="#E6E5E3"/>
<path transform="translate(1191,955)" d="m0 0 2 1-1 3h10l15 2 21 6 10 2-1 4-2-2-17-4-14-4-23-3-1-3z" fill="#E6E5E3"/>
<path transform="translate(1152,1108)" d="m0 0h4l1 5h-7l-20 7-5 1 4-3 10-6z" fill="#E6E5E3"/>
<path transform="translate(967,1008)" d="m0 0 3 1h-2v3l-8 5-11 5-10 1 2-2 19-9z" fill="#E6E5E3"/>
<path transform="translate(1204,1079)" d="m0 0h12l1 1v6l-2 3h-2l2-6-1-3-26 3-12 5-4 3-2-1 9-6 11-4z" fill="#E6E5E3"/>
<path transform="translate(1231,1324)" d="m0 0h2l4 9 1 4-6 1-5-1 1-6z" fill="#F0F0EF"/>
<path transform="translate(1222,724)" d="m0 0h1v10l-21 8-4-1-4-2 7-1 5-1 14-5 1-1z" fill="#DEDEDC"/>
<path transform="translate(1102,1112)" d="m0 0h1v8l-1 6 10-3-3 3-15 9-6 5-3-1 11-8 3-2z" fill="#E6E5E3"/>
<path transform="translate(1135,989)" d="m0 0 3 1-2 6v7h3l-2 4-4 5h-2l1-11z" fill="#E6E5E3"/>
<path transform="translate(1146,752)" d="m0 0h1l2 16-10 2h-4l-2-5h13z" fill="#E2E1DF"/>
<path transform="translate(831,914)" d="m0 0 1 4v7l-3 8-4-4 1-10 2 2z" fill="#DCDCDA"/>
<path transform="translate(1020,770)" d="m0 0 5 1 3 5-1 2-5-5-5 5-5-1 1 2v8h-1l-1-12 7-3z" fill="#E6E5E3"/>
<path transform="translate(1295,773)" d="m0 0h2v7l-2 9v16h-1l-1-6v-11l2-10-8-1 3-2z" fill="#E6E5E3"/>
<path transform="translate(688,1009)" d="m0 0 24 8 18 3v1l-14-1-12-2-16-8z" fill="#E6E5E3"/>
<path transform="translate(1104,928)" d="m0 0 3 2v2l5 2v2l4 2 2 3-3 1-1 2-10-13z" fill="#DEDDDB"/>
<path transform="translate(1186,897)" d="m0 0h4l1 2v7l-2 3v-7l-2-2-3 1v2l-8 6-6 4-2-1 12-9z" fill="#E6E5E3"/>
<path transform="translate(1083,1143)" d="m0 0 3 1v1l19 3 9 4 2 2-5-1-11-4-15-1-3-2z" fill="#E6E5E3"/>
<path transform="translate(1068,1140)" d="m0 0 1 3-4 9 5-3 4-2-6 8-7 4 1-5 5-12z" fill="#E6E5E3"/>
<path transform="translate(1117 1e3)" d="m0 0h1l1 16 3-2-1 8-2 5h-2z" fill="#E6E5E3"/>
<path transform="translate(1065,1160)" d="m0 0 3 1-5 4-15 15v-3l3-4h2l2-4 8-8z" fill="#EEEDEB"/>
<path transform="translate(1164,827)" d="m0 0 1 3v3l6-2 4-1-3 3-10 6h-2l1-6z" fill="#E6E5E3"/>
<path transform="translate(1125,1107)" d="m0 0v3l-3 5 4 2-9 4-3-1 6-8z" fill="#E6E5E3"/>
<path transform="translate(644,1103)" d="m0 0 2 1v3l-19 7-2-1 15-8z" fill="#D6D6D4"/>
<path transform="translate(970,1007)" d="m0 0 5 1v3l-14 7 2-4 5-2v-3h2z" fill="#F1F0EF"/>
<path transform="translate(1162,945)" d="m0 0 2 1-8 5-4 2h-8l-2 2 1-4 2-2h10z" fill="#E6E5E3"/>
<path transform="translate(1122,1121)" d="m0 0 3 1-15 10-8 5-3-1 11-7z" fill="#E6E5E3"/>
<path transform="translate(1115,931)" d="m0 0h4l2 3 4 9-1 3v-2h-4v-2l-2-1h2l-3-7z" fill="#E6E5E3"/>
<path transform="translate(1350,779)" d="m0 0 2 1-5 4h-7l-4-1 1 8-2-3-2-7 5-1 3 2 6-1z" fill="#E6E5E3"/>
<path transform="translate(1072,709)" d="m0 0 7 1 5 3-2 1-4-2-5 1-5 6v6l-2-1v-6l4-5z" fill="#E6E5E3"/>
<path transform="translate(1076,788)" d="m0 0h1l-1 8-2 3-7-1-5-2v-1l9 1 4-4z" fill="#E6E5E3"/>
<path transform="translate(975,1056)" d="m0 0h3l-1 4h-2v21h-1v-21l-2-1z" fill="#DCDBD9"/>
<path transform="translate(1015,1139)" d="m0 0 4 2-1 2h-4l-5 8-3 6-1-4 4-5 4-8z" fill="#E6E5E3"/>
<path transform="translate(1093,912)" d="m0 0 4 1 3 3 1 7-3-1z" fill="#D7D7D5"/>
<path transform="translate(1222,724)" d="m0 0h1v10l-12 4 1-3 9-4z" fill="#DBDBD9"/>
<path transform="translate(1128,954)" d="m0 0 3 3 2 5 3 3-4-1-4-4v-2h-2l-1-3z" fill="#D4D3D2"/>
<path transform="translate(829,712)" d="m0 0 14 2v1h-20l2-2z" fill="#C9C8C7"/>
<path transform="translate(1238,1045)" d="m0 0h1l1 13 1 3-4-1-2-2h2v-8z" fill="#E3E2E0"/>
<path transform="translate(1035,1170)" d="m0 0h1l1 5 3-1-2 6-2 3h-2z" fill="#E6E5E3"/>
<path transform="translate(1136,951)" d="m0 0h1v10l-4 2v-3-3h2v-5z" fill="#E6E5E3"/>
<path transform="translate(897,1149)" d="m0 0 3 1 1 7-2 6-1-4z" fill="#E6E5E3"/>
<path transform="translate(1181,1033)" d="m0 0h5l-5 4-10 6-2-1 9-6z" fill="#E5E5E3"/>
<path transform="translate(1014,916)" d="m0 0 6 4h5 3l-4 3h-5l-5-5z" fill="#E6E5E3"/>
<path transform="translate(1086,892)" d="m0 0 2 2 1 6 3 1-1 5-3-4-2-5z" fill="#D6D6D4"/>
<path transform="translate(1260,743)" d="m0 0 8 1 1 3-2 1h-7l3-1v-2h-3z" fill="#E6E5E3"/>
<path transform="translate(1147,569)" d="m0 0 2 4-6 8-2-1 5-9z" fill="#DAD9D7"/>
<path transform="translate(737,1064)" d="m0 0 4 1-11 5v-4z" fill="#D1D1CF"/>
</svg>
